<svg width="18" height="24" viewBox="0 0 18 24" fill="none" xmlns="http://www.w3.org/2000/svg">
<path d="M13.3399 16.7335C13.3399 17.1149 13.4798 17.4808 13.7288 17.7505C13.9778 18.0203 14.3155 18.1718 14.6676 18.1718C15.0197 18.1718 15.3574 18.0203 15.6064 17.7505C15.8554 17.4808 15.9953 17.1149 15.9953 16.7335C15.9953 16.352 15.8554 15.9862 15.6064 15.7164C15.3574 15.4467 15.0197 15.2952 14.6676 15.2952C14.3155 15.2952 13.9778 15.4467 13.7288 15.7164C13.4798 15.9862 13.3399 16.352 13.3399 16.7335Z" stroke="#3C3C3B" stroke-width="2.78863" stroke-linecap="round" stroke-linejoin="round"/>
<path d="M2.0528 4.50676C2.0528 3.74383 2.33255 3.01215 2.83053 2.47267C3.32851 1.9332 4.00391 1.63013 4.70815 1.63013C5.41239 1.63013 6.08779 1.9332 6.58577 2.47267C7.08374 3.01215 7.3635 3.74383 7.3635 4.50676V17.4516C7.3635 18.596 7.78314 19.6935 8.53011 20.5027C9.27707 21.312 10.2902 21.7666 11.3465 21.7666C12.4029 21.7666 13.416 21.312 14.163 20.5027C14.9099 19.6935 15.3296 18.596 15.3296 17.4516V16.7325M3.38047 10.26H11.3465" stroke="#3C3C3B" stroke-width="2.78863" stroke-linecap="round" stroke-linejoin="round"/>
</svg>
