<svg width="34" height="28" viewBox="0 0 34 28" fill="none" xmlns="http://www.w3.org/2000/svg">
<path d="M33.4688 24.7692H30.7248C30.7825 24.6013 30.8121 24.4248 30.8125 24.2469V14.5385C30.8125 14.3957 30.7565 14.2587 30.6569 14.1577C30.5573 14.0567 30.4221 14 30.2812 14C30.1404 14 30.0052 14.0567 29.9056 14.1577C29.806 14.2587 29.75 14.3957 29.75 14.5385V24.2469C29.75 24.3854 29.6957 24.5183 29.5991 24.6162C29.5024 24.7142 29.3714 24.7692 29.2347 24.7692H24.4375V23.1323C24.4266 21.0161 23.7349 18.9613 22.4674 17.2797C21.2 15.598 19.4259 14.3813 17.4144 13.8142C18.1693 13.3623 18.7967 12.7209 19.2359 11.9517C19.6751 11.1826 19.9113 10.3117 19.9219 9.42308V2.69231C19.8956 1.98677 19.6073 1.31735 19.1147 0.818105C18.6222 0.318861 17.9617 0.0266521 17.2656 0H12.4844C11.7883 0.0266521 11.1278 0.318861 10.6353 0.818105C10.1427 1.31735 9.85442 1.98677 9.82812 2.69231V9.42308C9.83859 10.3137 10.0759 11.1865 10.5171 11.9568C10.9583 12.7271 11.5884 13.3688 12.3462 13.8196C10.8035 14.2642 9.39704 15.0979 8.25828 16.2427C7.33003 17.1694 6.59185 18.273 6.08628 19.4901C5.58071 20.7072 5.31773 22.0137 5.3125 23.3342V24.7692H4.76531C4.62864 24.7692 4.49757 24.7142 4.40093 24.6162C4.30429 24.5183 4.25 24.3854 4.25 24.2469V6.98385C4.25 6.84532 4.30429 6.71247 4.40093 6.61452C4.49757 6.51657 4.62864 6.46154 4.76531 6.46154H8.23438C8.37527 6.46154 8.5104 6.40481 8.61003 6.30383C8.70965 6.20285 8.76562 6.06589 8.76562 5.92308C8.76562 5.78027 8.70965 5.64331 8.61003 5.54233C8.5104 5.44135 8.37527 5.38462 8.23438 5.38462H4.76531C4.34814 5.38882 3.94922 5.55866 3.65422 5.85767C3.35922 6.15668 3.19165 6.56101 3.1875 6.98385V24.2469C3.18786 24.4248 3.21749 24.6013 3.27516 24.7692H0.53125C0.390354 24.7692 0.255228 24.826 0.1556 24.9269C0.0559708 25.0279 0 25.1649 0 25.3077V25.4423C0 26.6538 0.964219 28 2.25781 28H31.7422C33.0358 28 34 26.6538 34 25.4423V25.3077C34 25.1649 33.944 25.0279 33.8444 24.9269C33.7448 24.826 33.6096 24.7692 33.4688 24.7692ZM10.8906 2.69231C10.9158 2.27223 11.0918 1.87602 11.3854 1.57843C11.679 1.28084 12.0699 1.10245 12.4844 1.07692H17.2656C17.6801 1.10245 18.071 1.28084 18.3646 1.57843C18.6582 1.87602 18.8342 2.27223 18.8594 2.69231V5.38462H10.8906V2.69231ZM10.8906 9.42308V6.46154H18.8594V9.42308C18.8331 10.4858 18.4049 11.4976 17.6633 12.2492C16.9217 13.0009 15.9235 13.4349 14.875 13.4615C13.8265 13.4349 12.8283 13.0009 12.0867 12.2492C11.3451 11.4976 10.9169 10.4858 10.8906 9.42308ZM6.375 23.3342C6.38029 22.1567 6.61509 20.9917 7.06592 19.9064C7.51675 18.8211 8.17472 17.8368 9.00203 17.01C9.75345 16.259 10.635 15.6548 11.6025 15.2277C11.3369 15.9519 11.1191 16.7865 10.9969 17.2685C10.4397 17.3571 9.93315 17.6478 9.57158 18.0866C9.21001 18.5254 9.018 19.0823 9.03125 19.6538V23.1538C9.03125 23.2967 9.08722 23.4336 9.18685 23.5346C9.28648 23.6356 9.4216 23.6923 9.5625 23.6923H10.0938C10.2346 23.6923 10.3698 23.6356 10.4694 23.5346C10.569 23.4336 10.625 23.2967 10.625 23.1538C10.625 23.011 10.569 22.8741 10.4694 22.7731C10.3698 22.6721 10.2346 22.6154 10.0938 22.6154V19.6538C10.0874 19.4753 10.1175 19.2974 10.182 19.1312C10.2465 18.965 10.3441 18.814 10.4687 18.6877C10.5933 18.5614 10.7423 18.4625 10.9062 18.3971C11.0702 18.3317 11.2458 18.3013 11.4219 18.3077C11.598 18.3013 11.7735 18.3317 11.9375 18.3971C12.1015 18.4625 12.2504 18.5614 12.3751 18.6877C12.4997 18.814 12.5973 18.965 12.6618 19.1312C12.7263 19.2974 12.7563 19.4753 12.75 19.6538V22.6154C12.6091 22.6154 12.474 22.6721 12.3743 22.7731C12.2747 22.8741 12.2188 23.011 12.2188 23.1538C12.2188 23.2967 12.2747 23.4336 12.3743 23.5346C12.474 23.6356 12.6091 23.6923 12.75 23.6923H13.2812C13.4221 23.6923 13.5573 23.6356 13.6569 23.5346C13.7565 23.4336 13.8125 23.2967 13.8125 23.1538V19.6538C13.8246 19.1245 13.6606 18.6064 13.347 18.183C13.0333 17.7596 12.5882 17.4555 12.0833 17.3196C12.2931 16.5119 12.6411 15.3246 12.9412 14.8131C12.9412 14.7969 12.9545 14.7808 12.9625 14.7673C13.6364 14.6033 14.3281 14.5264 15.0211 14.5385C15.9181 14.5549 16.8068 14.7166 17.6534 15.0177C18.198 16.0138 18.4503 17.4408 18.5433 18.1596C18.0891 18.2978 17.6997 18.5979 17.4469 19.0045C17.1941 19.4111 17.095 19.8966 17.168 20.3715C17.241 20.8464 17.4811 21.2784 17.844 21.5878C18.2068 21.8972 18.6679 22.063 19.1419 22.0546C19.616 22.0461 20.0711 21.8641 20.423 21.542C20.775 21.22 21 20.7797 21.0566 20.3025C21.1131 19.8254 20.9973 19.3436 20.7307 18.9462C20.464 18.5488 20.0644 18.2627 19.6058 18.1408C19.5035 17.3066 19.3256 16.4838 19.0745 15.6827C20.3695 16.4357 21.4462 17.5207 22.1969 18.8287C22.9475 20.1367 23.3455 21.6218 23.3511 23.135L23.375 24.7692H6.375V23.3342ZM19.125 19.1504C19.3031 19.1504 19.4772 19.2039 19.6253 19.3042C19.7734 19.4045 19.8888 19.547 19.9569 19.7138C20.0251 19.8806 20.0429 20.0641 20.0082 20.2411C19.9734 20.4182 19.8877 20.5808 19.7617 20.7084C19.6358 20.8361 19.4753 20.923 19.3007 20.9582C19.126 20.9934 18.9449 20.9754 18.7804 20.9063C18.6159 20.8372 18.4752 20.7202 18.3763 20.5701C18.2773 20.4201 18.2245 20.2436 18.2245 20.0631C18.2245 19.821 18.3194 19.5889 18.4883 19.4177C18.6571 19.2465 18.8862 19.1504 19.125 19.1504ZM31.7422 26.9231H2.25781C1.73984 26.9231 1.28297 26.3846 1.12359 25.8462H32.8764C32.717 26.3981 32.2602 26.9231 31.7422 26.9231Z" fill="#5CA900"/>
<path d="M32.4062 2.15385H23.9062C23.4836 2.15385 23.0782 2.32404 22.7793 2.62698C22.4804 2.92992 22.3125 3.3408 22.3125 3.76923V7.63C22.3125 9.75423 21.7016 11.1596 20.4531 11.9242C20.3547 11.9847 20.2782 12.076 20.2354 12.1843C20.1926 12.2927 20.1856 12.4122 20.2156 12.5248C20.2455 12.6375 20.3108 12.7373 20.4016 12.8091C20.4923 12.8809 20.6036 12.9209 20.7188 12.9231H32.4062C32.8289 12.9231 33.2343 12.7529 33.5332 12.4499C33.8321 12.147 34 11.7361 34 11.3077V3.76923C34 3.3408 33.8321 2.92992 33.5332 2.62698C33.2343 2.32404 32.8289 2.15385 32.4062 2.15385ZM32.9375 11.3077C32.9375 11.4505 32.8815 11.5875 32.7819 11.6884C32.6823 11.7894 32.5471 11.8462 32.4062 11.8462H22.1531C22.9739 10.8446 23.375 9.45 23.375 7.63V3.76923C23.375 3.62642 23.431 3.48946 23.5306 3.38848C23.6302 3.2875 23.7654 3.23077 23.9062 3.23077H32.4062C32.5471 3.23077 32.6823 3.2875 32.7819 3.38848C32.8815 3.48946 32.9375 3.62642 32.9375 3.76923V11.3077Z" fill="#5CA900"/>
<path d="M30.2812 5.38462H26.0312C25.8904 5.38462 25.7552 5.44135 25.6556 5.54233C25.556 5.64331 25.5 5.78027 25.5 5.92308C25.5 6.06589 25.556 6.20285 25.6556 6.30383C25.7552 6.40481 25.8904 6.46154 26.0312 6.46154H30.2812C30.4221 6.46154 30.5573 6.40481 30.6569 6.30383C30.7565 6.20285 30.8125 6.06589 30.8125 5.92308C30.8125 5.78027 30.7565 5.64331 30.6569 5.54233C30.5573 5.44135 30.4221 5.38462 30.2812 5.38462Z" fill="#5CA900"/>
<path d="M29.2188 8.61538H26.0312C25.8904 8.61538 25.7552 8.67211 25.6556 8.7731C25.556 8.87408 25.5 9.01104 25.5 9.15385C25.5 9.29666 25.556 9.43361 25.6556 9.5346C25.7552 9.63558 25.8904 9.69231 26.0312 9.69231H29.2188C29.3596 9.69231 29.4948 9.63558 29.5944 9.5346C29.694 9.43361 29.75 9.29666 29.75 9.15385C29.75 9.01104 29.694 8.87408 29.5944 8.7731C29.4948 8.67211 29.3596 8.61538 29.2188 8.61538Z" fill="#5CA900"/>
<path d="M15.6719 2.69231H15.4062V2.42308C15.4062 2.28027 15.3503 2.14331 15.2507 2.04233C15.151 1.94135 15.0159 1.88462 14.875 1.88462C14.7341 1.88462 14.599 1.94135 14.4993 2.04233C14.3997 2.14331 14.3438 2.28027 14.3438 2.42308V2.69231H14.0781C13.9372 2.69231 13.8021 2.74904 13.7025 2.85002C13.6028 2.951 13.5469 3.08796 13.5469 3.23077C13.5469 3.37358 13.6028 3.51054 13.7025 3.61152C13.8021 3.7125 13.9372 3.76923 14.0781 3.76923H14.3438V4.03846C14.3438 4.18127 14.3997 4.31823 14.4993 4.41921C14.599 4.52019 14.7341 4.57692 14.875 4.57692C15.0159 4.57692 15.151 4.52019 15.2507 4.41921C15.3503 4.31823 15.4062 4.18127 15.4062 4.03846V3.76923H15.6719C15.8128 3.76923 15.9479 3.7125 16.0475 3.61152C16.1472 3.51054 16.2031 3.37358 16.2031 3.23077C16.2031 3.08796 16.1472 2.951 16.0475 2.85002C15.9479 2.74904 15.8128 2.69231 15.6719 2.69231Z" fill="#5CA900"/>
</svg>
