<svg width="34" height="34" viewBox="0 0 34 34" fill="none" xmlns="http://www.w3.org/2000/svg">
<path d="M31.2858 2.43399H26.4548V0.796875C26.4548 0.585531 26.3708 0.382842 26.2214 0.233399C26.0719 0.0839562 25.8693 0 25.6579 0C25.4466 0 25.2439 0.0839562 25.0944 0.233399C24.945 0.382842 24.861 0.585531 24.861 0.796875V2.43399H17.7969V0.796875C17.7969 0.585531 17.7129 0.382842 17.5635 0.233399C17.414 0.0839562 17.2113 0 17 0C16.7887 0 16.586 0.0839562 16.4365 0.233399C16.2871 0.382842 16.2031 0.585531 16.2031 0.796875V2.43399H9.13896V0.796875C9.13896 0.585531 9.05501 0.382842 8.90556 0.233399C8.75612 0.0839562 8.55343 0 8.34209 0C8.13074 0 7.92805 0.0839562 7.77861 0.233399C7.62917 0.382842 7.54521 0.585531 7.54521 0.796875V2.43399H2.71422C1.99462 2.43481 1.30473 2.72104 0.79589 3.22988C0.287053 3.73871 0.00082605 4.42861 0 5.14821L0 31.2857C0.000790937 32.0053 0.287005 32.6953 0.795847 33.2041C1.30469 33.713 1.9946 33.9992 2.71422 34H31.2858C32.0054 33.9992 32.6953 33.713 33.2041 33.2041C33.713 32.6953 33.9992 32.0054 34 31.2858V5.14821C33.9992 4.42861 33.7129 3.73871 33.2041 3.22988C32.6953 2.72104 32.0054 2.43481 31.2858 2.43399ZM2.71422 4.02774H7.54521V5.66485C7.54521 5.8762 7.62917 6.07888 7.77861 6.22833C7.92805 6.37777 8.13074 6.46173 8.34209 6.46173C8.55343 6.46173 8.75612 6.37777 8.90556 6.22833C9.05501 6.07888 9.13896 5.8762 9.13896 5.66485V4.02774H16.2031V5.66485C16.2031 5.8762 16.2871 6.07888 16.4365 6.22833C16.586 6.37777 16.7887 6.46173 17 6.46173C17.2113 6.46173 17.414 6.37777 17.5635 6.22833C17.7129 6.07888 17.7969 5.8762 17.7969 5.66485V4.02774H24.861V5.66485C24.861 5.8762 24.945 6.07888 25.0944 6.22833C25.2439 6.37777 25.4466 6.46173 25.6579 6.46173C25.8693 6.46173 26.0719 6.37777 26.2214 6.22833C26.3708 6.07888 26.4548 5.8762 26.4548 5.66485V4.02774H31.2858C31.5828 4.02809 31.8676 4.14625 32.0777 4.35631C32.2877 4.56636 32.4059 4.85115 32.4062 5.14821V10.5437H1.59375V5.14821C1.5941 4.85115 1.71226 4.56636 1.92232 4.35631C2.13237 4.14625 2.41716 4.02809 2.71422 4.02774ZM31.2858 32.4062H2.71422C2.41716 32.4059 2.13235 32.2878 1.9223 32.0777C1.71224 31.8676 1.59408 31.5828 1.59375 31.2858V12.1375H32.4062V31.2858C32.4059 31.5828 32.2878 31.8676 32.0777 32.0777C31.8676 32.2878 31.5828 32.4059 31.2858 32.4062ZM22.0914 16.8629C21.6078 16.8629 21.139 17.0307 20.7652 17.3376C20.3914 17.6446 20.1357 18.0717 20.0417 18.5462C19.9477 19.0206 20.0212 19.513 20.2496 19.9393C20.4781 20.3656 20.8474 20.6995 21.2946 20.8839V27.53C21.2946 29.0292 20.4301 30.2957 19.4068 30.2957H16.9555C15.9322 30.2957 15.0677 29.0292 15.0677 27.53V24.7297C15.5841 24.6493 16.0665 24.4226 16.458 24.0765C16.8494 23.7303 17.1334 23.2791 17.2763 22.7765L18.9662 16.9635C19.0903 16.5533 19.1149 16.1193 19.0379 15.6976C18.9609 15.2759 18.7847 14.8787 18.5236 14.5387C18.3401 14.2918 18.117 14.077 17.8633 13.903C17.7921 13.5691 17.6148 13.2672 17.3578 13.0425C17.1008 12.8177 16.7779 12.6822 16.4375 12.6562C16.0971 12.6302 15.7574 12.715 15.4692 12.8981C15.1811 13.0812 14.9599 13.3526 14.8388 13.6719C14.7177 13.9911 14.7032 14.3409 14.7975 14.669C14.8917 14.9972 15.0896 15.286 15.3617 15.4923C15.6337 15.6986 15.9652 15.8113 16.3066 15.8136C16.648 15.8158 16.9809 15.7075 17.2557 15.5048C17.3655 15.6466 17.4393 15.813 17.4707 15.9896C17.5021 16.1663 17.4902 16.3479 17.436 16.5189L15.7461 22.3319C15.6792 22.5757 15.5332 22.7904 15.331 22.9422C15.1288 23.094 14.8819 23.1743 14.629 23.1705H14.2707C14.0179 23.1744 13.771 23.094 13.5688 22.9422C13.3666 22.7904 13.2206 22.5757 13.1537 22.3319L11.4638 16.5189C11.4096 16.3479 11.3976 16.1663 11.4291 15.9896C11.4605 15.813 11.5342 15.6466 11.6441 15.5048C11.9185 15.707 12.2511 15.8149 12.5919 15.8124C12.9328 15.81 13.2637 15.6973 13.5353 15.4912C13.8068 15.2851 14.0043 14.9967 14.0984 14.669C14.1924 14.3414 14.1779 13.9921 14.057 13.6733C13.9361 13.3546 13.7153 13.0836 13.4276 12.9007C13.1399 12.7179 12.8008 12.633 12.4609 12.6589C12.121 12.6847 11.7985 12.8199 11.5418 13.0441C11.2851 13.2684 11.1078 13.5697 11.0365 13.903C10.7827 14.0771 10.5595 14.292 10.3758 14.5391C10.1149 14.8791 9.93861 15.2763 9.86167 15.698C9.78472 16.1196 9.80931 16.5535 9.93338 16.9638L11.6233 22.7767C11.7492 23.2194 11.9848 23.6232 12.3083 23.9505C12.6318 24.2779 13.0327 24.5183 13.4738 24.6494V27.5302C13.4738 29.9341 15.0356 31.8897 16.9554 31.8897H19.4066C21.3263 31.8897 22.8881 29.9341 22.8881 27.5302V20.8839C23.3353 20.6995 23.7046 20.3656 23.933 19.9393C24.1615 19.513 24.235 19.0206 24.141 18.5462C24.0469 18.0717 23.7912 17.6446 23.4174 17.3376C23.0436 17.0307 22.5749 16.8629 22.0912 16.8629H22.0914ZM16.3045 14.234C16.3043 14.232 16.3046 14.2301 16.3052 14.2283C16.3059 14.2265 16.3069 14.2248 16.3082 14.2234C16.3096 14.2219 16.3112 14.2208 16.3129 14.22C16.3147 14.2193 16.3166 14.2189 16.3186 14.2189C16.3205 14.2189 16.3224 14.2193 16.3242 14.22C16.326 14.2208 16.3276 14.2219 16.3289 14.2234C16.3302 14.2248 16.3313 14.2265 16.3319 14.2283C16.3326 14.2301 16.3328 14.232 16.3327 14.234C16.3324 14.2376 16.3308 14.2409 16.3282 14.2434C16.3256 14.2458 16.3222 14.2472 16.3186 14.2472C16.315 14.2472 16.3115 14.2458 16.3089 14.2434C16.3063 14.2409 16.3047 14.2376 16.3045 14.234ZM12.5811 14.2198C12.583 14.2196 12.5849 14.2199 12.5867 14.2205C12.5885 14.2212 12.5902 14.2222 12.5915 14.2236C12.5929 14.2249 12.5939 14.2266 12.5945 14.2284C12.5952 14.2302 12.5954 14.2321 12.5952 14.234C12.595 14.2376 12.5934 14.2409 12.5907 14.2434C12.5881 14.2458 12.5847 14.2472 12.5811 14.2472C12.5775 14.2472 12.5741 14.2458 12.5714 14.2434C12.5688 14.2409 12.5672 14.2376 12.567 14.234C12.5668 14.2321 12.567 14.2301 12.5677 14.2283C12.5683 14.2265 12.5693 14.2249 12.5707 14.2235C12.572 14.2222 12.5737 14.2211 12.5755 14.2205C12.5773 14.2199 12.5792 14.2196 12.5811 14.2198ZM22.0914 18.4566C22.1895 18.4566 22.2853 18.4857 22.3668 18.5403C22.4484 18.5948 22.5119 18.6722 22.5494 18.7629C22.5868 18.8535 22.5966 18.9532 22.5775 19.0493C22.5583 19.1455 22.511 19.2338 22.4417 19.3032C22.3723 19.3725 22.2839 19.4197 22.1878 19.4388C22.0916 19.4579 21.9919 19.448 21.9013 19.4105C21.8107 19.3729 21.7333 19.3094 21.6788 19.2278C21.6244 19.1463 21.5953 19.0504 21.5953 18.9523C21.5955 18.8209 21.6479 18.6949 21.7409 18.6019C21.8339 18.509 21.96 18.4568 22.0914 18.4567V18.4566Z" fill="#5CA900"/>
</svg>
