<svg width="49" height="49" viewBox="0 0 49 49" fill="none" xmlns="http://www.w3.org/2000/svg">
<g filter="url(#filter0_d_1_2419)">
<path d="M42.5714 20.2273H41.1048V20.1517H24.7186V27.4345H35.0082C33.5071 31.674 29.4733 34.7172 24.7186 34.7172C18.6858 34.7172 13.7945 29.826 13.7945 23.7931C13.7945 17.7602 18.6858 12.869 24.7186 12.869C27.5034 12.869 30.0368 13.9195 31.9659 15.6355L37.1157 10.4857C33.8639 7.45515 29.5143 5.58621 24.7186 5.58621C14.6639 5.58621 6.51172 13.7383 6.51172 23.7931C6.51172 33.8479 14.6639 42 24.7186 42C34.7734 42 42.9255 33.8479 42.9255 23.7931C42.9255 22.5723 42.7999 21.3807 42.5714 20.2273Z" fill="#FFC107"/>
<path d="M8.61133 15.3185L14.5932 19.7054C16.2118 15.6981 20.1317 12.8687 24.719 12.8687C27.5037 12.8687 30.0372 13.9193 31.9662 15.6353L37.116 10.4855C33.8643 7.45493 29.5147 5.58599 24.719 5.58599C17.7257 5.58599 11.661 9.53416 8.61133 15.3185Z" fill="#FF3D00"/>
<path d="M24.7185 42.0001C29.4213 42.0001 33.6945 40.2004 36.9253 37.2736L31.2902 32.5052C29.4009 33.9421 27.0921 34.7192 24.7185 34.7174C19.9828 34.7174 15.9618 31.6977 14.447 27.4838L8.50977 32.0582C11.523 37.9545 17.6423 42.0001 24.7185 42.0001Z" fill="#4CAF50"/>
<path d="M42.5715 20.2272H41.105V20.1517H24.7188V27.4344H35.0084C34.2903 29.4521 32.9968 31.2152 31.2878 32.5059L31.2905 32.5041L36.9256 37.2725C36.5268 37.6348 42.9256 32.8965 42.9256 23.793C42.9256 22.5723 42.8 21.3806 42.5715 20.2272Z" fill="#1976D2"/>
</g>
<defs>
<filter id="filter0_d_1_2419" x="0.442753" y="0.275646" width="48.552" height="48.5521" filterUnits="userSpaceOnUse" color-interpolation-filters="sRGB">
<feFlood flood-opacity="0" result="BackgroundImageFix"/>
<feColorMatrix in="SourceAlpha" type="matrix" values="0 0 0 0 0 0 0 0 0 0 0 0 0 0 0 0 0 0 127 0" result="hardAlpha"/>
<feOffset dy="0.758621"/>
<feGaussianBlur stdDeviation="3.03448"/>
<feComposite in2="hardAlpha" operator="out"/>
<feColorMatrix type="matrix" values="0 0 0 0 0 0 0 0 0 0 0 0 0 0 0 0 0 0 0.1 0"/>
<feBlend mode="normal" in2="BackgroundImageFix" result="effect1_dropShadow_1_2419"/>
<feBlend mode="normal" in="SourceGraphic" in2="effect1_dropShadow_1_2419" result="shape"/>
</filter>
</defs>
</svg>
