<svg width="36" height="36" viewBox="0 0 36 36" fill="none" xmlns="http://www.w3.org/2000/svg">
<path d="M15.1198 10.0816C14.6082 9.56252 13.8659 9.38168 13.1828 9.60975C12.9009 9.70393 12.5852 9.70386 12.3031 9.60968C11.62 9.38161 10.8779 9.56252 10.3664 10.0816L9.15053 11.3152C8.60524 11.8687 8.30499 12.6046 8.30499 13.3876C8.30499 14.1712 8.60538 14.9073 9.15046 15.4599C9.69581 16.0137 10.421 16.3186 11.1925 16.3186C11.7505 16.3186 12.2842 16.1592 12.7432 15.8614C13.2022 16.1592 13.7359 16.3187 14.2936 16.3187C15.0648 16.3187 15.79 16.0137 16.3356 15.46C17.4612 14.3175 17.4613 12.4583 16.3355 11.315L15.1198 10.0816ZM15.3527 14.4626C15.0696 14.7498 14.6935 14.9081 14.2935 14.9081C13.8935 14.9081 13.5174 14.7498 13.2343 14.4626C13.104 14.3303 12.9272 14.256 12.7429 14.256C12.5585 14.256 12.3817 14.3304 12.2514 14.4627C11.9686 14.7498 11.5925 14.908 11.1924 14.908C10.7923 14.908 10.4162 14.7498 10.133 14.4623C9.85041 14.1758 9.69477 13.7941 9.69477 13.3876C9.69477 12.9814 9.85048 12.5996 10.1332 12.3127L11.3489 11.0791C11.4875 10.9385 11.6866 10.8889 11.8685 10.9496C12.4313 11.1378 13.0548 11.1377 13.6172 10.9497C13.7991 10.8889 13.9984 10.9386 14.137 11.0792L15.3524 12.3126C15.9365 12.9055 15.9366 13.8701 15.3527 14.4626Z" fill="#FF741C" stroke="#FF741C" stroke-width="0.355109"/>
<path d="M33.8273 30.4546C35.1315 28.8098 35.8174 26.9128 35.8174 24.9334C35.8174 22.2345 34.537 19.6907 32.2122 17.7706C30.1997 16.1085 27.587 15.0689 24.7631 14.7894C25.2587 13.6823 25.5172 12.5005 25.5172 11.2846C25.5172 8.52202 24.1842 5.93557 21.7637 4.00174C19.3921 2.10698 16.2485 1.06348 12.9119 1.06348C9.57528 1.06348 6.43166 2.10698 4.06006 4.00174C1.63956 5.93557 0.306519 8.52202 0.306519 11.2846C0.306519 13.264 0.992392 15.161 2.29679 16.8061L1.24284 18.0619C0.971723 18.385 0.912146 18.825 1.08741 19.2102C1.26268 19.5955 1.63131 19.8348 2.04946 19.8348H5.99651C7.61926 20.6985 9.44925 21.2385 11.3651 21.4282C10.8621 22.5452 10.6068 23.7197 10.6068 24.9335C10.6068 26.0299 10.8191 27.1088 11.2378 28.1401C11.3483 28.4124 11.6074 28.5769 11.8806 28.5769C11.9688 28.5769 12.0585 28.5597 12.145 28.5236C12.4999 28.3752 12.669 27.9629 12.5228 27.6028C12.1737 26.7428 11.9967 25.8446 11.9967 24.9335C11.9967 23.7411 12.2948 22.5898 12.8817 21.5053C12.8918 21.5053 12.9018 21.5058 12.9119 21.5058C16.2485 21.5058 19.3922 20.4622 21.7637 18.5675C22.67 17.8434 23.4238 17.0278 24.0123 16.1458C26.8019 16.3001 29.3896 17.258 31.335 18.8648C33.3293 20.5118 34.4276 22.6671 34.4276 24.9334C34.4276 26.7495 33.7262 28.4947 32.3992 29.9801C32.1646 30.2427 32.1585 30.6412 32.3849 30.9111L33.3593 32.0726H29.9537C29.8381 32.0726 29.7243 32.1018 29.6227 32.1577C27.7358 33.195 25.519 33.7433 23.2122 33.7433C20.7123 33.7433 18.3461 33.1089 16.3692 31.9088C16.0399 31.7088 15.6132 31.8178 15.4161 32.152C15.2191 32.4864 15.3264 32.9195 15.6558 33.1194C17.8482 34.4504 20.4612 35.1539 23.2122 35.1539C25.6859 35.1539 28.0728 34.5766 30.1273 33.4831H34.0746C34.493 33.4831 34.8617 33.2437 35.0369 32.8583C35.2121 32.4729 35.1521 32.0329 34.881 31.7104L33.8273 30.4546ZM12.9118 20.0951C10.6053 20.0951 8.38844 19.5467 6.50102 18.5093C6.39941 18.4535 6.28566 18.4242 6.17005 18.4242H2.76447L3.73915 17.263C3.96567 16.9931 3.95963 16.5946 3.725 16.332C2.39785 14.8459 1.6963 13.1006 1.6963 11.2846C1.6963 6.42642 6.72754 2.47415 12.9118 2.47415C19.096 2.47415 24.1273 6.42649 24.1273 11.2846C24.1273 16.1427 19.0961 20.0951 12.9118 20.0951Z" fill="#FF741C" stroke="#FF741C" stroke-width="0.355109"/>
<path d="M24.0813 20.7803H22.343C21.5578 20.7803 20.919 21.4286 20.919 22.2255V23.3693H19.7921C19.0069 23.3693 18.3681 24.0176 18.3681 24.8145V26.5788C18.3681 27.3757 19.0069 28.024 19.7921 28.024H20.919V29.1678C20.919 29.9647 21.5578 30.613 22.343 30.613H24.0813C24.8665 30.613 25.5053 29.9647 25.5053 29.1678V28.024H26.6322C27.4174 28.024 28.0562 27.3757 28.0562 26.5788V24.8145C28.0562 24.0176 27.4174 23.3693 26.6322 23.3693H25.5053V22.2255C25.5053 21.4287 24.8665 20.7803 24.0813 20.7803ZM26.6322 24.7799C26.651 24.7799 26.6663 24.7954 26.6663 24.8145V26.5788C26.6663 26.5979 26.651 26.6134 26.6322 26.6134H24.8104C24.4267 26.6134 24.1155 26.9292 24.1155 27.3188V29.1678C24.1155 29.1869 24.1001 29.2024 24.0813 29.2024H22.343C22.3242 29.2024 22.3088 29.1869 22.3088 29.1678V27.3188C22.3088 26.9293 21.9977 26.6134 21.6139 26.6134H19.7921C19.7733 26.6134 19.758 26.5979 19.758 26.5788V24.8145C19.758 24.7954 19.7733 24.7799 19.7921 24.7799H21.6139C21.9976 24.7799 22.3088 24.4641 22.3088 24.0745V22.2255C22.3088 22.2064 22.3242 22.1909 22.343 22.1909H24.0813C24.1001 22.1909 24.1155 22.2064 24.1155 22.2255V24.0745C24.1155 24.464 24.4266 24.7799 24.8104 24.7799H26.6322Z" fill="#FF741C" stroke="#FF741C" stroke-width="0.355109"/>
<path d="M13.5908 31.2212C13.9746 31.2212 14.2858 30.9054 14.2858 30.5159C14.2858 30.1263 13.9746 29.8105 13.5908 29.8105C13.207 29.8105 12.8959 30.1263 12.8959 30.5159C12.8959 30.9054 13.207 31.2212 13.5908 31.2212Z" fill="#FF741C"/>
<path d="M8.28596 10.0386C8.66978 10.0386 8.98092 9.72281 8.98092 9.33327C8.98092 8.94372 8.66978 8.62793 8.28596 8.62793C7.90215 8.62793 7.591 8.94372 7.591 9.33327C7.591 9.72281 7.90215 10.0386 8.28596 10.0386Z" fill="#FF741C"/>
<path d="M17.1994 10.0386C17.5832 10.0386 17.8944 9.72281 17.8944 9.33327C17.8944 8.94372 17.5832 8.62793 17.1994 8.62793C16.8156 8.62793 16.5045 8.94372 16.5045 9.33327C16.5045 9.72281 16.8156 10.0386 17.1994 10.0386Z" fill="#FF741C"/>
<path d="M11.091 7.66067C11.4748 7.66067 11.7859 7.34488 11.7859 6.95534C11.7859 6.56579 11.4748 6.25 11.091 6.25C10.7071 6.25 10.396 6.56579 10.396 6.95534C10.396 7.34488 10.7071 7.66067 11.091 7.66067Z" fill="#FF741C"/>
<path d="M14.3954 7.66067C14.7792 7.66067 15.0904 7.34488 15.0904 6.95534C15.0904 6.56579 14.7792 6.25 14.3954 6.25C14.0116 6.25 13.7004 6.56579 13.7004 6.95534C13.7004 7.34488 14.0116 7.66067 14.3954 7.66067Z" fill="#FF741C"/>
</svg>
