<svg width="35" height="36" viewBox="0 0 35 36" fill="none" xmlns="http://www.w3.org/2000/svg">
<path d="M9.55142 8.90918H8.41507V10.0455H9.55142V8.90918Z" fill="#FF741C"/>
<path d="M14.0968 8.90918H12.9604V10.0455H14.0968V8.90918Z" fill="#FF741C"/>
<path d="M12.9604 12.46H11.8241C11.8241 12.5601 11.6084 12.744 11.2559 12.744C10.9034 12.744 10.6877 12.5601 10.6877 12.46H9.55139C9.55139 13.2565 10.3001 13.8804 11.2559 13.8804C12.2117 13.8804 12.9604 13.2565 12.9604 12.46Z" fill="#FF741C"/>
<path d="M12.9604 29.932H5.57418V26.5229H4.43784V30.5001C4.43784 30.6508 4.4977 30.7953 4.60425 30.9019C4.7108 31.0085 4.85532 31.0683 5.00601 31.0683H9.5514V33.9092H2.44923C2.22327 33.9089 2.00664 33.8191 1.84687 33.6593C1.68709 33.4995 1.59722 33.2829 1.59697 33.0569V23.3604C1.59883 22.9015 1.73878 22.4537 1.9986 22.0754C2.25842 21.6971 2.6261 21.4057 3.05378 21.2392L7.20944 19.6409C7.26473 20.1271 7.49688 20.5759 7.86168 20.902C8.22648 21.2281 8.69847 21.4087 9.18777 21.4094H13.3241C13.8134 21.4087 14.2854 21.2282 14.6502 20.9021C15.015 20.576 15.2471 20.1271 15.3024 19.6409L16.1656 19.9729L16.5735 18.9123L15.0748 18.3359L14.2057 15.4389L14.8899 15.0924C15.3359 14.8682 15.7106 14.5242 15.9719 14.0989C16.2333 13.6736 16.371 13.1839 16.3695 12.6848V11.7504H16.7956C17.1346 11.75 17.4595 11.6152 17.6992 11.3755C17.9388 11.1359 18.0736 10.8109 18.074 10.472V9.05156C18.0736 8.71263 17.9388 8.38769 17.6992 8.14803C17.4595 7.90837 17.1346 7.77356 16.7956 7.77317H16.3695V6.63682C16.5202 6.63682 16.6647 6.57696 16.7713 6.47041C16.8778 6.36385 16.9377 6.21934 16.9377 6.06865V4.81973C16.938 4.40226 16.8069 3.9953 16.5628 3.65663C16.3187 3.31796 15.9741 3.06482 15.5779 2.93315L13.3853 2.20226C13.2369 1.83421 12.982 1.51886 12.6532 1.29665C12.3245 1.07444 11.9368 0.955501 11.54 0.955078H5.00601C4.85532 0.955078 4.7108 1.01494 4.60425 1.12149C4.4977 1.22805 4.43784 1.37256 4.43784 1.52325V3.22778H5.57418V2.09143H6.71053V4.64821C6.71019 4.94307 6.77581 5.23427 6.90259 5.50047H6.42645C6.20049 5.50022 5.98386 5.41035 5.82408 5.25057C5.66431 5.0908 5.57444 4.87417 5.57418 4.64821V4.36412H4.43784V4.64821C4.43844 5.12625 4.61096 5.58813 4.9239 5.9495C5.23684 6.31088 5.66931 6.54764 6.14236 6.61657V7.77317H5.71623C5.3773 7.77356 5.05236 7.90837 4.8127 8.14803C4.57304 8.38769 4.43822 8.71263 4.43784 9.05156V10.472C4.43822 10.8109 4.57304 11.1359 4.8127 11.3755C5.05236 11.6152 5.3773 11.75 5.71623 11.7504H6.14236V12.7063C6.14065 13.2078 6.27952 13.6998 6.54321 14.1265C6.8069 14.5532 7.18486 14.8974 7.63423 15.1202L8.30169 15.4539L7.43709 18.3359L2.64586 20.1786C2.00434 20.4284 1.45283 20.8654 1.06309 21.4329C0.673352 22.0004 0.463424 22.672 0.460617 23.3604V33.0569C0.461207 33.5842 0.670911 34.0896 1.04372 34.4624C1.41653 34.8352 1.922 35.0449 2.44923 35.0455H12.9604V33.9092H10.6878V31.0683H12.9604C13.2903 31.068 13.6185 31.1156 13.9347 31.2095L14.2588 30.1203C13.8374 29.9951 13.4001 29.9317 12.9604 29.932ZM16.7956 8.90952C16.8333 8.90956 16.8694 8.92454 16.896 8.95117C16.9226 8.9778 16.9376 9.0139 16.9377 9.05156V10.472C16.9376 10.5097 16.9226 10.5458 16.896 10.5724C16.8694 10.599 16.8333 10.614 16.7956 10.614H16.3695V8.90952H16.7956ZM15.8013 4.81973V5.50047H13.5286V3.44794L15.2185 4.01115C15.3883 4.06758 15.536 4.17608 15.6406 4.32123C15.7453 4.46638 15.8015 4.64081 15.8013 4.81973ZM12.3923 2.94369V5.50047H11.2559V2.94369C11.2563 2.64883 11.1907 2.35763 11.0639 2.09143H11.54C11.766 2.09168 11.9826 2.18155 12.1424 2.34133C12.3022 2.5011 12.392 2.71773 12.3923 2.94369ZM7.84688 4.64821V2.09143H9.26732C9.49327 2.09168 9.7099 2.18155 9.86968 2.34133C10.0295 2.5011 10.1193 2.71773 10.1196 2.94369V5.50047H8.69914C8.47319 5.50022 8.25656 5.41035 8.09678 5.25057C7.93701 5.0908 7.84713 4.87417 7.84688 4.64821ZM5.71623 10.614C5.67857 10.614 5.64246 10.599 5.61584 10.5724C5.58921 10.5458 5.57423 10.5097 5.57418 10.472V9.05156C5.57423 9.0139 5.58921 8.9778 5.61584 8.95117C5.64246 8.92454 5.67857 8.90956 5.71623 8.90952H6.14236V10.614H5.71623ZM7.27871 12.7063V6.63682H15.2331V12.6848C15.234 12.9738 15.1543 13.2573 15.003 13.5035C14.8517 13.7497 14.6347 13.9489 14.3765 14.0787L11.6369 15.466C11.5181 15.5258 11.387 15.5571 11.254 15.5574C11.121 15.5578 10.9898 15.5271 10.8707 15.4679L8.14241 14.1038C7.88226 13.9748 7.66344 13.7755 7.51079 13.5285C7.35813 13.2815 7.27773 12.9966 7.27871 12.7063ZM10.3625 16.4843C10.6403 16.6225 10.9466 16.6941 11.2569 16.6933C11.5672 16.6925 11.8731 16.6194 12.1503 16.4797L13.1757 15.9604L14.1404 19.1758C14.1785 19.3031 14.1864 19.4375 14.1634 19.5684C14.1404 19.6992 14.0871 19.8229 14.0078 19.9295C13.9285 20.0361 13.8254 20.1226 13.7067 20.1823C13.588 20.2419 13.4569 20.273 13.3241 20.273H9.18777C9.05491 20.273 8.92389 20.2419 8.80517 20.1823C8.68646 20.1226 8.58333 20.0361 8.50402 19.9295C8.42471 19.8229 8.37142 19.6992 8.34841 19.5684C8.3254 19.4375 8.33329 19.3031 8.37147 19.1758L9.3333 15.9697L10.3625 16.4843Z" fill="#FF741C" stroke="#FF741C" stroke-width="0.213065"/>
<path d="M34.551 21.9772C34.5499 20.9228 34.1304 19.9118 33.3848 19.1662C32.6392 18.4206 31.6283 18.0012 30.5738 18C30.4924 18 30.412 18.0175 30.3379 18.0513C30.2639 18.0851 30.1979 18.1344 30.1446 18.1959C30.0913 18.2574 30.0518 18.3297 30.0288 18.4078C30.0058 18.4859 29.9999 18.568 30.0114 18.6486L30.65 23.1193C30.5778 23.1155 30.505 23.1136 30.4318 23.1136H26.0284V24.2499H30.4318C31.2226 24.2508 31.9808 24.5654 32.54 25.1246C33.0992 25.6838 33.4138 26.442 33.4147 27.2328V30.926C33.4138 31.7168 33.0992 32.475 32.54 33.0342C31.9808 33.5934 31.2226 33.908 30.4318 33.9089H23.7557V33.1987C23.7562 32.7844 23.921 32.3873 24.2139 32.0943C24.5068 31.8014 24.904 31.6366 25.3182 31.6362H27.1648C27.3155 31.6362 27.46 31.5763 27.5665 31.4698C27.6731 31.3632 27.7329 31.2187 27.7329 31.068V30.3578C27.7334 29.9435 27.8982 29.5464 28.1911 29.2535C28.484 28.9605 28.8812 28.7958 29.2954 28.7953H31.142V27.659H29.2954C28.5799 27.6598 27.8939 27.9444 27.388 28.4503C26.882 28.9563 26.5974 29.6423 26.5966 30.3578V30.4998H25.3182C24.6027 30.5006 23.9167 30.7852 23.4107 31.2912C22.9048 31.7972 22.6202 32.4831 22.6194 33.1987V33.9089H15.2331V33.1987C15.2336 32.7844 15.3983 32.3873 15.6913 32.0943C15.9842 31.8014 16.3813 31.6366 16.7956 31.6362H21.483V30.4998H19.492L19.9704 28.2271H20.0211C20.5636 28.2266 21.0982 28.0968 21.5806 27.8486C22.063 27.6003 22.4794 27.2407 22.7951 26.7996L24.7862 24.012C24.8404 23.9361 24.8751 23.8482 24.8872 23.7558C24.8994 23.6634 24.8886 23.5695 24.8559 23.4823L23.6698 20.3194C23.4754 19.806 23.1298 19.3637 22.6785 19.051C22.2273 18.7383 21.6918 18.5699 21.1428 18.5682H18.9519C18.5859 18.5669 18.2267 18.6673 17.9144 18.858C17.602 19.0488 17.3488 19.3225 17.1827 19.6486L15.397 22.6805L13.2745 23.7417C13.1801 23.7889 13.1008 23.8615 13.0453 23.9512C12.9898 24.041 12.9604 24.1444 12.9604 24.2499V25.5283C12.9612 26.2438 13.2458 26.9298 13.7518 27.4358C14.2577 27.9417 14.9437 28.2263 15.6592 28.2271H18.8091L18.3307 30.4998H16.7956C16.0801 30.5006 15.3941 30.7852 14.8881 31.2912C14.3822 31.7972 14.0976 32.4831 14.0968 33.1987V34.4771C14.0968 34.6277 14.1566 34.7723 14.2632 34.8788C14.3697 34.9854 14.5143 35.0452 14.6649 35.0452H30.4318C31.5239 35.044 32.5709 34.6096 33.3432 33.8374C34.1154 33.0651 34.5498 32.0181 34.551 30.926V21.9772ZM21.483 19.7425V22.8295C21.483 23.0555 21.3932 23.2723 21.2334 23.4321C21.0736 23.592 20.8568 23.6817 20.6308 23.6817C20.4047 23.6817 20.188 23.592 20.0281 23.4321C19.8683 23.2723 19.7785 23.0555 19.7785 22.8295V19.7045H21.1428C21.2573 19.7045 21.3714 19.7173 21.483 19.7425ZM15.2331 24.0329V24.534C15.2329 24.76 15.143 24.9766 14.9832 25.1364C14.8234 25.2961 14.6068 25.386 14.3809 25.3863H14.0968V24.6011L15.2331 24.0329ZM14.4537 26.5213C14.968 26.5018 15.4547 26.284 15.8119 25.9135C16.169 25.543 16.3689 25.0486 16.3695 24.534V23.2685L18.1709 20.2099C18.1775 20.1987 18.1838 20.1872 18.1896 20.1757C18.2836 19.9862 18.445 19.8387 18.6422 19.7621V22.8295C18.6422 23.3569 18.8517 23.8627 19.2246 24.2356C19.5975 24.6086 20.1034 24.8181 20.6308 24.8181C21.1582 24.8181 21.664 24.6086 22.0369 24.2356C22.4099 23.8627 22.6194 23.3569 22.6194 22.8295V20.7545L23.6856 23.5978L21.8705 26.1391C21.6599 26.4332 21.3824 26.6729 21.0608 26.8384C20.7391 27.0039 20.3827 27.0904 20.0211 27.0908H15.6592C15.4287 27.0908 15.201 27.0398 14.9926 26.9413C14.7841 26.8428 14.6001 26.6994 14.4537 26.5213ZM31.8321 23.3586L31.2402 19.2153C31.8596 19.3657 32.4105 19.7196 32.8048 20.2204C33.1991 20.7212 33.4139 21.3398 33.4147 21.9772V24.3948C32.9744 23.9316 32.4327 23.577 31.8321 23.3586Z" fill="#FF741C" stroke="#FF741C" stroke-width="0.213065"/>
<path d="M23.6381 16.1291C23.7447 16.2357 23.8892 16.2955 24.0399 16.2955C24.1906 16.2955 24.3351 16.2357 24.4416 16.1291L27.1506 13.4203C27.5235 13.0473 27.733 12.5415 27.733 12.0141C27.733 11.4867 27.5235 10.9809 27.1506 10.6079C26.7776 10.235 26.2718 10.0255 25.7444 10.0254C25.217 10.0254 24.7112 10.235 24.3382 10.6079L24.0399 10.9062L23.7415 10.6078C23.3686 10.2349 22.8627 10.0254 22.3353 10.0254C21.8079 10.0254 21.3021 10.2349 20.9291 10.6079C20.5562 10.9809 20.3467 11.4867 20.3467 12.0141C20.3467 12.5415 20.5563 13.0473 20.9292 13.4203L23.6381 16.1291ZM21.7327 11.4114C21.8925 11.2516 22.1093 11.1618 22.3353 11.1618C22.5613 11.1618 22.7781 11.2515 22.938 11.4113L23.6381 12.1115C23.6908 12.1643 23.7535 12.2061 23.8224 12.2347C23.8914 12.2632 23.9652 12.2779 24.0399 12.2779C24.1145 12.2779 24.1884 12.2632 24.2573 12.2347C24.3263 12.2061 24.3889 12.1643 24.4416 12.1115L25.1417 11.4114C25.2209 11.3323 25.3148 11.2695 25.4182 11.2266C25.5216 11.1838 25.6325 11.1618 25.7444 11.1618C25.8563 11.1618 25.9671 11.1838 26.0705 11.2266C26.1739 11.2695 26.2679 11.3323 26.347 11.4114C26.4262 11.4905 26.4889 11.5845 26.5318 11.6879C26.5746 11.7913 26.5967 11.9021 26.5967 12.014C26.5967 12.126 26.5746 12.2368 26.5318 12.3402C26.489 12.4436 26.4262 12.5375 26.347 12.6167L24.0399 14.9239L21.7327 12.6167C21.5731 12.4567 21.4835 12.24 21.4835 12.014C21.4835 11.7881 21.5731 11.5714 21.7327 11.4114Z" fill="#FF741C" stroke="#FF741C" stroke-width="0.213065"/>
<path d="M28.9647 7.90511C29.0713 8.01166 29.2158 8.07152 29.3665 8.07152C29.5172 8.07152 29.6617 8.01166 29.7682 7.90511L31.6579 6.01541C31.9622 5.7106 32.1338 5.29791 32.1354 4.86718C32.137 4.43644 31.9683 4.02252 31.6662 3.7155C31.3641 3.40848 30.9529 3.23322 30.5222 3.22787C30.0915 3.22251 29.6761 3.38748 29.3665 3.68689C29.0568 3.38739 28.6414 3.22234 28.2106 3.22766C27.7799 3.23299 27.3687 3.40825 27.0665 3.7153C26.7644 4.02236 26.5957 4.43634 26.5973 4.86712C26.5989 5.29791 26.7706 5.71062 27.0751 6.01542L28.9647 7.90511ZM27.8786 4.50885C27.9719 4.41577 28.0983 4.36349 28.2301 4.36348C28.3619 4.36346 28.4883 4.41572 28.5816 4.50878L28.9647 4.89192C29.0174 4.94469 29.0801 4.98655 29.149 5.01511C29.2179 5.04367 29.2918 5.05837 29.3664 5.05837C29.4411 5.05837 29.515 5.04367 29.5839 5.01511C29.6528 4.98655 29.7155 4.94469 29.7682 4.89192L30.1513 4.50885C30.1972 4.46185 30.2521 4.42444 30.3126 4.39878C30.3731 4.37312 30.4382 4.35972 30.5039 4.35936C30.5696 4.35899 30.6348 4.37167 30.6956 4.39666C30.7564 4.42165 30.8117 4.45846 30.8582 4.50494C30.9047 4.55143 30.9415 4.60668 30.9665 4.66748C30.9915 4.72829 31.0042 4.79346 31.0038 4.8592C31.0034 4.92494 30.99 4.98997 30.9644 5.0505C30.9387 5.11103 30.9013 5.16588 30.8543 5.21186L29.3665 6.69983L27.8786 5.21184C27.8324 5.16568 27.7958 5.11089 27.7708 5.05057C27.7458 4.99026 27.7329 4.92562 27.7329 4.86034C27.7329 4.79506 27.7458 4.73042 27.7708 4.67011C27.7958 4.60979 27.8324 4.55501 27.8786 4.50885Z" fill="#FF741C" stroke="#FF741C" stroke-width="0.213065"/>
</svg>
