<svg width="50" height="44" viewBox="0 0 50 44" fill="none" xmlns="http://www.w3.org/2000/svg">
<path d="M38.4284 11.2483C38.6421 11.5547 38.9955 11.7472 39.3968 11.7404C52.0166 11.4667 49.4259 1.41107 43.4919 2.48285C40.8555 -2.95123 31.2141 0.899644 38.4284 11.2483ZM42.3605 3.57923C42.4882 3.95619 42.8939 4.16195 43.2733 4.0431C47.6201 2.6807 49.9396 9.96888 39.534 10.2714C33.6433 1.68666 40.8983 -0.735707 42.3605 3.57923Z" fill="white"/>
<path d="M42.0103 43.9771C43.0289 43.9771 43.9816 43.5754 44.6929 42.846C45.4012 42.1195 45.7771 41.162 45.7516 40.1498C45.7275 39.1986 45.6278 38.267 45.4553 37.3808C45.3779 36.9837 44.9929 36.7246 44.5962 36.8019C44.1991 36.8792 43.9399 37.2638 44.0173 37.6609C44.1744 38.4673 44.2651 39.3171 44.2871 40.1868C44.3026 40.8009 44.0742 41.382 43.6439 41.8232C43.2107 42.2675 42.6306 42.5121 42.0103 42.5121H39.6365C40.8854 39.8894 40.2384 36.609 40.2057 36.4491C40.1246 36.0531 39.7382 35.798 39.3422 35.8785C38.9461 35.959 38.6901 36.3456 38.7701 36.7418C38.7776 36.7789 39.4716 40.3338 37.9493 42.5121H35.8389V36.5959C35.8389 36.1914 35.5109 35.8634 35.1063 35.8634C34.7018 35.8634 34.3738 36.1913 34.3738 36.5959V42.5121H32.2633C30.7418 40.3349 31.4343 36.7825 31.4425 36.7418C31.523 36.3457 31.2675 35.9592 30.8715 35.8782C30.475 35.7971 30.0882 36.0527 30.007 36.4491C29.9743 36.6091 29.3274 39.8894 30.5762 42.5121H28.2024C26.9226 42.5121 25.8935 41.4616 25.9257 40.1867C26.0363 35.8032 27.8619 32.5846 30.2462 30.8534C33.2843 33.4537 37.6928 33.9351 41.2657 32.0221C41.8845 32.6961 42.6301 33.6964 43.2191 35.0565C43.3799 35.4277 43.811 35.5983 44.1824 35.4376C44.5536 35.2769 44.7242 34.8455 44.5635 34.4743C44.0438 33.2745 43.3434 32.1644 42.5148 31.2207C44.6166 29.6504 45.9879 27.3321 46.3632 24.734C48.9125 23.664 50.1201 21.0276 49.9906 18.231C49.9652 17.6836 49.6954 17.1863 49.2502 16.8667C47.2188 15.4082 44.891 15.0201 42.9227 15.7858C40.8401 14.0484 38.1106 13.2512 35.4499 13.5692C35.2795 13.3324 35.0913 13.1104 34.8869 12.9038C35.0675 9.58144 34.2835 7.28866 32.5541 6.08642C30.0976 4.3786 26.5908 5.51532 25.4522 5.95927C22.9638 4.48876 20.1502 3.96601 17.4371 4.32108C16.9284 3.86112 15.753 2.93104 14.0989 2.43114C10.3921 1.31132 7.29434 3.19726 5.34834 4.97655C3.54346 6.62665 2.4335 8.28544 2.04912 9.90683C1.71504 11.3162 1.95967 12.6383 2.73809 13.6298C3.33272 14.3872 4.14649 14.8384 4.97139 14.9391C4.49766 15.7958 4.05518 16.6809 3.64541 17.5934C3.47969 17.9624 3.64453 18.3959 4.01348 18.5617C4.38252 18.7274 4.81611 18.5626 4.98184 18.1935C5.62305 16.7659 6.34785 15.4098 7.14981 14.128C8.32061 12.2573 10.2805 9.71376 11.8733 8.33437C17.1271 3.81425 25.2697 5.22714 28.7005 11.2929C28.5018 11.424 28.3405 11.5623 28.1923 11.769C26.5694 14.0293 26.1312 16.9238 27.6893 19.1991C26.086 22.6705 26.5847 26.8253 29.1897 29.8094C26.6814 31.7345 24.723 35.0857 24.4816 39.6452C24.4215 40.7815 24.5172 41.5877 25.23 42.5124H20.2871C23.5445 37.6182 22.9238 30.8479 22.8933 30.5383C22.8536 30.1357 22.495 29.8416 22.0924 29.8812C21.6898 29.9209 21.3956 30.2795 21.4353 30.682C21.4426 30.7567 22.1139 38.058 18.4676 42.5125H14.8067C14.5776 35.5886 15.3498 31.915 15.8056 30.9224C15.977 30.5585 15.8229 30.1239 15.4597 29.9498C15.095 29.7748 14.6573 29.9288 14.4824 30.2935C14.422 30.4196 13.0426 33.4122 13.341 42.5125H10.5574C6.98789 38.1066 8.5293 30.8422 8.54561 30.7679C8.63262 30.373 8.3833 29.9823 7.98848 29.895C7.59365 29.8078 7.20244 30.057 7.11504 30.452C7.09639 30.5365 6.6583 32.5516 6.73955 35.182C6.82871 38.0704 7.52168 40.5716 8.75742 42.5126H7.01865C4.19229 42.5126 1.83067 40.3561 1.58379 37.5435C1.09922 32.0212 2.13985 25.798 3.91338 20.849C4.04981 20.4682 3.85176 20.0488 3.4709 19.9124C3.09014 19.7759 2.6707 19.974 2.53428 20.3548C0.693556 25.4906 -0.379881 31.9256 0.124415 37.6712C0.27588 39.3977 1.06475 40.9932 2.34561 42.1637C3.6252 43.3331 5.28486 43.9771 7.01865 43.9771H42.0103ZM5.90117 13.358C5.28506 13.6707 4.42871 13.4107 3.89043 12.7251C2.3958 10.8213 4.27422 7.94355 6.33682 6.05771C8.39824 4.17304 10.2917 3.56425 11.8784 3.56425C13.4499 3.56425 14.7205 4.16171 15.5543 4.70868C12.1908 5.6829 10.1065 7.6914 7.87344 10.5437C7.17803 11.4323 6.49492 12.4091 5.90117 13.358ZM48.3957 18.0567C48.4747 18.1135 48.5226 18.2017 48.5271 18.2989C48.623 20.3689 47.8553 22.1082 46.4593 23.0296C46.3897 20.805 45.5542 18.6632 44.1056 16.9582C45.4651 16.6758 47.0041 17.0575 48.3957 18.0567ZM29.2678 12.7876C29.4777 12.478 29.4687 12.4893 29.8966 12.4855C31.3374 12.4721 32.796 12.8935 33.819 13.9079C31.7615 14.5222 29.8599 15.8199 28.5392 17.7196C27.971 16.4188 28.0832 14.534 29.2678 12.7876ZM33.4476 11.839C32.4425 11.3048 31.3532 11.0635 30.2203 11.023C29.4237 9.49159 28.373 8.14628 26.9553 7.00155C31.091 5.8331 33.4017 7.35751 33.4476 11.839ZM38.5532 31.4962C31.5002 33.1657 25.6923 25.6379 29.3325 19.2075C31.9859 14.5349 38.3396 13.53 42.2922 17.1826C44.6544 19.3608 45.5457 22.7038 44.649 25.7283C43.7676 28.7017 41.3724 30.8213 38.5532 31.4962Z" fill="white"/>
</svg>
