<svg width="53" height="51" viewBox="0 0 53 51" fill="none" xmlns="http://www.w3.org/2000/svg">
<g filter="url(#filter0_d_1_2312)">
<path d="M26.8459 34.5697L26.6743 34.747L26.4856 34.5697C18.3342 26.9282 12.9457 21.8752 12.9457 16.7513C12.9457 13.2054 15.5198 10.5459 18.952 10.5459C21.5947 10.5459 24.1689 12.3189 25.0784 14.7301H28.2703C29.1798 12.3189 31.7539 10.5459 34.3967 10.5459C37.8288 10.5459 40.403 13.2054 40.403 16.7513C40.403 21.8752 35.0145 26.9282 26.8459 34.5697ZM34.3967 7C31.4107 7 28.5449 8.43611 26.6743 10.6878C24.8038 8.43611 21.938 7 18.952 7C13.6665 7 9.51355 11.2729 9.51355 16.7513C9.51355 23.4354 15.3482 28.9139 24.186 37.1937L26.6743 39.534L29.1626 37.1937C38.0005 28.9139 43.8351 23.4354 43.8351 16.7513C43.8351 11.2729 39.6822 7 34.3967 7Z" fill="white"/>
</g>
<defs>
<filter id="filter0_d_1_2312" x="0.933158" y="0.564706" width="51.4824" height="49.6947" filterUnits="userSpaceOnUse" color-interpolation-filters="sRGB">
<feFlood flood-opacity="0" result="BackgroundImageFix"/>
<feColorMatrix in="SourceAlpha" type="matrix" values="0 0 0 0 0 0 0 0 0 0 0 0 0 0 0 0 0 0 127 0" result="hardAlpha"/>
<feOffset dy="2.1451"/>
<feGaussianBlur stdDeviation="4.2902"/>
<feComposite in2="hardAlpha" operator="out"/>
<feColorMatrix type="matrix" values="0 0 0 0 0 0 0 0 0 0 0 0 0 0 0 0 0 0 0.25 0"/>
<feBlend mode="normal" in2="BackgroundImageFix" result="effect1_dropShadow_1_2312"/>
<feBlend mode="normal" in="SourceGraphic" in2="effect1_dropShadow_1_2312" result="shape"/>
</filter>
</defs>
</svg>
