<svg width="50" height="50" viewBox="0 0 50 50" fill="none" xmlns="http://www.w3.org/2000/svg">
<path d="M46.0938 44.6107V19.5317H48.4375C48.5531 19.5317 48.6672 19.5061 48.7717 19.4566C48.8762 19.4072 48.9684 19.3351 49.0417 19.2457C49.115 19.1563 49.1675 19.0518 49.1955 18.9396C49.2234 18.8275 49.2262 18.7105 49.2035 18.5972L47.641 10.7847C47.6055 10.6076 47.5098 10.4484 47.3701 10.3339C47.2305 10.2195 47.0555 10.1569 46.875 10.1567H32.6668C32.762 9.64131 32.8108 9.11838 32.8125 8.59424C32.8125 6.52223 31.9894 4.53509 30.5243 3.06997C29.0591 1.60484 27.072 0.781738 25 0.781738C22.928 0.781738 20.9409 1.60484 19.4757 3.06997C18.0106 4.53509 17.1875 6.52223 17.1875 8.59424C17.1892 9.11838 17.238 9.64131 17.3332 10.1567H3.125C2.94445 10.1569 2.7695 10.2195 2.62987 10.3339C2.49024 10.4484 2.39453 10.6076 2.35898 10.7847L0.796484 18.5972C0.773799 18.7105 0.776549 18.8275 0.804535 18.9396C0.83252 19.0518 0.885045 19.1563 0.958321 19.2457C1.0316 19.3351 1.1238 19.4072 1.22828 19.4566C1.33276 19.5061 1.44691 19.5317 1.5625 19.5317H3.90625V44.6107C3.02465 44.792 2.23247 45.2716 1.66323 45.9687C1.09399 46.6659 0.782497 47.538 0.78125 48.438C0.78125 48.6452 0.86356 48.8439 1.01007 48.9904C1.15659 49.1369 1.3553 49.2192 1.5625 49.2192H48.4375C48.6447 49.2192 48.8434 49.1369 48.9899 48.9904C49.1364 48.8439 49.2188 48.6452 49.2188 48.438C49.2175 47.538 48.906 46.6659 48.3368 45.9687C47.7675 45.2716 46.9754 44.792 46.0938 44.6107ZM44.5312 44.5317H39.0625V42.9692H42.1875C42.3947 42.9692 42.5934 42.8869 42.7399 42.7404C42.8864 42.5939 42.9688 42.3952 42.9688 42.188V23.438C42.9688 23.2308 42.8864 23.0321 42.7399 22.8856C42.5934 22.739 42.3947 22.6567 42.1875 22.6567H30.6046C29.3105 21.8781 27.868 21.3784 26.3696 21.1896L27.4354 19.5317H44.5312V44.5317ZM25 22.6567C26.8542 22.6567 28.6668 23.2066 30.2085 24.2367C31.7502 25.2668 32.9518 26.731 33.6614 28.4441C34.3709 30.1571 34.5566 32.0421 34.1949 33.8607C33.8331 35.6793 32.9402 37.3497 31.6291 38.6609C30.318 39.972 28.6475 40.8649 26.829 41.2266C25.0104 41.5883 23.1254 41.4027 21.4123 40.6931C19.6993 39.9835 18.2351 38.7819 17.205 37.2402C16.1748 35.6985 15.625 33.8859 15.625 32.0317C15.6276 29.5461 16.6161 27.1631 18.3737 25.4055C20.1313 23.6479 22.5144 22.6593 25 22.6567ZM38.2812 26.563H34.4576C33.9604 25.7033 33.3489 24.9148 32.64 24.2192H41.4062V41.4067H39.0625V27.3442C39.0625 27.137 38.9802 26.9383 38.8337 26.7918C38.6872 26.6453 38.4884 26.563 38.2812 26.563ZM15.5424 26.563H11.7188C11.5115 26.563 11.3128 26.6453 11.1663 26.7918C11.0198 26.9383 10.9375 27.137 10.9375 27.3442V41.4067H8.59375V24.2192H17.36C16.6511 24.9148 16.0396 25.7033 15.5424 26.563ZM12.5 28.1255H14.7961C14.1566 29.7825 13.9302 31.5703 14.1366 33.3344C14.3429 35.0986 14.9758 36.7859 15.9805 38.2505C16.9852 39.7152 18.3315 40.9132 19.903 41.7409C21.4744 42.5686 23.2239 43.0012 25 43.0012C26.7761 43.0012 28.5256 42.5686 30.097 41.7409C31.6685 40.9132 33.0148 39.7152 34.0195 38.2505C35.0242 36.7859 35.6571 35.0986 35.8634 33.3344C36.0698 31.5703 35.8434 29.7825 35.2039 28.1255H37.5V44.5317H12.5V28.1255ZM28.4398 17.9692L29.9466 15.6255H47.0159L47.4847 17.9692H28.4398ZM32.2343 11.7192H46.2349L46.7036 14.063H30.951L31.4209 13.3321C31.7467 12.8239 32.0193 12.2834 32.2343 11.7192ZM25 2.34424C26.657 2.34613 28.2456 3.00521 29.4173 4.1769C30.589 5.3486 31.2481 6.93721 31.25 8.59424C31.2508 9.97453 30.8541 11.3259 30.1074 12.4867L25 20.4302L19.8926 12.4864C19.1459 11.3256 18.7493 9.97443 18.75 8.59424C18.7519 6.93721 19.411 5.3486 20.5827 4.1769C21.7544 3.00521 23.343 2.34613 25 2.34424ZM17.7657 11.7192C17.9807 12.2834 18.2533 12.8239 18.5791 13.3321L19.049 14.063H3.29648L3.76523 11.7192H17.7657ZM2.98408 15.6255H20.0534L21.5602 17.9692H2.51543L2.98408 15.6255ZM22.5646 19.5317L23.6304 21.1896C22.132 21.3784 20.6895 21.8781 19.3954 22.6567H7.8125C7.6053 22.6567 7.40659 22.739 7.26007 22.8856C7.11356 23.0321 7.03125 23.2308 7.03125 23.438V42.188C7.03125 42.3952 7.11356 42.5939 7.26007 42.7404C7.40659 42.8869 7.6053 42.9692 7.8125 42.9692H10.9375V44.5317H5.46875V19.5317H22.5646ZM2.47725 47.6567C2.63946 47.2001 2.93895 46.8048 3.33466 46.5251C3.73036 46.2453 4.2029 46.0949 4.6875 46.0942H45.3125C45.7971 46.0949 46.2696 46.2453 46.6653 46.5251C47.061 46.8048 47.3605 47.2001 47.5228 47.6567H2.47725Z" fill="white"/>
<path d="M21.0938 11.719H22.6563V13.2815C22.6563 13.4887 22.7386 13.6874 22.8851 13.8339C23.0316 13.9804 23.2303 14.0627 23.4375 14.0627H26.5625C26.7697 14.0627 26.9684 13.9804 27.1149 13.8339C27.2614 13.6874 27.3438 13.4887 27.3438 13.2815V11.719H28.9063C29.1135 11.719 29.3122 11.6367 29.4587 11.4902C29.6052 11.3437 29.6875 11.1449 29.6875 10.9377V7.81274C29.6875 7.60554 29.6052 7.40683 29.4587 7.26032C29.3122 7.1138 29.1135 7.03149 28.9063 7.03149H27.3438V5.46899C27.3438 5.26179 27.2614 5.06308 27.1149 4.91657C26.9684 4.77005 26.7697 4.68774 26.5625 4.68774H23.4375C23.2303 4.68774 23.0316 4.77005 22.8851 4.91657C22.7386 5.06308 22.6563 5.26179 22.6563 5.46899V7.03149H21.0938C20.8865 7.03149 20.6878 7.1138 20.5413 7.26032C20.3948 7.40683 20.3125 7.60554 20.3125 7.81274V10.9377C20.3125 11.1449 20.3948 11.3437 20.5413 11.4902C20.6878 11.6367 20.8865 11.719 21.0938 11.719ZM21.875 8.59399H23.4375C23.6447 8.59399 23.8434 8.51168 23.9899 8.36517C24.1364 8.21866 24.2188 8.01994 24.2188 7.81274V6.25024H25.7813V7.81274C25.7813 8.01994 25.8636 8.21866 26.0101 8.36517C26.1566 8.51168 26.3553 8.59399 26.5625 8.59399H28.125V10.1565H26.5625C26.3553 10.1565 26.1566 10.2388 26.0101 10.3853C25.8636 10.5318 25.7813 10.7305 25.7813 10.9377V12.5002H24.2188V10.9377C24.2188 10.7305 24.1364 10.5318 23.9899 10.3853C23.8434 10.2388 23.6447 10.1565 23.4375 10.1565H21.875V8.59399Z" fill="white"/>
<path d="M18.2678 30.6107C18.6539 31.5766 19.3474 32.3433 20.1226 32.6631C20.3793 32.7711 20.6546 32.8278 20.9331 32.8301C21.187 32.8305 21.4381 32.7783 21.6708 32.6767C22.8785 32.1518 23.3017 30.4338 22.6352 28.7644C22.2499 27.7993 21.5563 27.0318 20.7805 26.7129C20.537 26.6049 20.2739 26.548 20.0076 26.5455C19.7413 26.543 19.4772 26.595 19.2317 26.6984C18.0244 27.2225 17.601 28.9414 18.2678 30.6107ZM19.8677 28.1617C19.9003 28.1483 19.9354 28.1416 19.9707 28.1422C20.0404 28.1449 20.109 28.1606 20.1729 28.1886C20.4561 28.3058 20.8824 28.6815 21.1518 29.3567H21.1525C21.5218 30.2814 21.3257 31.0863 21.0343 31.2137C20.9332 31.2451 20.8239 31.2355 20.7298 31.1871C20.4466 31.0699 20.0195 30.6942 19.7502 30.019C19.381 29.094 19.5763 28.2883 19.8677 28.1617Z" fill="white"/>
<path d="M28.3295 32.677C28.5622 32.7786 28.8133 32.8308 29.0672 32.8304C29.3457 32.8281 29.621 32.7714 29.8777 32.6633C30.6529 32.3436 31.3464 31.5769 31.7332 30.611C32.3993 28.9417 31.9759 27.2228 30.7689 26.6987C30.5234 26.5951 30.2594 26.543 29.993 26.5455C29.7266 26.548 29.4636 26.605 29.2201 26.7131C28.4442 27.0321 27.7507 27.7996 27.3654 28.7647C26.6983 30.434 27.1218 32.1521 28.3295 32.677ZM28.8471 29.3567H28.8479C29.1172 28.6815 29.5437 28.3054 29.8268 28.1886C29.8906 28.1606 29.9592 28.1449 30.0289 28.1421C30.0642 28.1416 30.0993 28.1483 30.1319 28.1617C30.4233 28.2886 30.6187 29.094 30.2502 30.0187C29.9801 30.6939 29.5528 31.07 29.2698 31.1868C29.1757 31.2352 29.0664 31.2447 28.9653 31.2134C28.6743 31.0863 28.4782 30.2814 28.8477 29.3567H28.8471Z" fill="white"/>
<path d="M25 30.469C26.3146 30.469 27.3438 29.0964 27.3438 27.344C27.3438 25.5916 26.3146 24.219 25 24.219C23.6854 24.219 22.6562 25.5916 22.6562 27.344C22.6562 29.0964 23.6854 30.469 25 30.469ZM25 25.7815C25.3189 25.7815 25.7813 26.3903 25.7813 27.344C25.7813 28.2977 25.3189 28.9065 25 28.9065C24.6811 28.9065 24.2188 28.2977 24.2188 27.344C24.2188 26.3903 24.6811 25.7815 25 25.7815Z" fill="white"/>
<path d="M25 32.1248C22.9851 31.6463 21.0945 33.032 21.0938 34.7661C21.0983 35.1154 21.1744 35.46 21.3175 35.7786C21.4605 36.0972 21.6674 36.3831 21.9254 36.6186C21.8917 36.7802 21.8749 36.9448 21.875 37.1099C21.875 38.6175 23.2766 39.8443 25 39.8443C26.7234 39.8443 28.125 38.6175 28.125 37.1099C28.1251 36.9448 28.1083 36.7802 28.0746 36.6186C28.3326 36.3831 28.5395 36.0972 28.6825 35.7786C28.8256 35.46 28.9017 35.1154 28.9063 34.7661C28.9063 33.032 27.0203 31.6457 25 32.1248ZM26.7494 35.6748C26.5803 35.7773 26.4563 35.9401 26.4025 36.1304C26.3487 36.3207 26.369 36.5244 26.4595 36.7002C26.5265 36.8264 26.5619 36.967 26.5625 37.1099C26.5625 37.7454 25.8469 38.2818 25 38.2818C24.1531 38.2818 23.4375 37.7454 23.4375 37.1099C23.4381 36.967 23.4735 36.8264 23.5405 36.7002C23.631 36.5244 23.6513 36.3207 23.5975 36.1304C23.5437 35.9401 23.4197 35.7773 23.2506 35.6748C22.8729 35.4452 22.6563 35.114 22.6563 34.7661C22.6563 34.1306 23.3719 33.5943 24.2188 33.5943C24.4079 33.5958 24.5958 33.6251 24.7765 33.6813C24.9222 33.7255 25.0778 33.7255 25.2235 33.6813C25.4042 33.6251 25.5921 33.5958 25.7813 33.5943C26.6281 33.5943 27.3438 34.1306 27.3438 34.7661C27.3438 35.114 27.1271 35.4452 26.7494 35.6748Z" fill="white"/>
</svg>
