<svg width="38" height="38" viewBox="0 0 38 38" fill="none" xmlns="http://www.w3.org/2000/svg">
<path d="M10.0046 7.39448C10.3721 7.39448 10.6704 7.09616 10.6704 6.72865V5.13067C10.6704 4.76291 10.3721 4.46484 10.0046 4.46484C9.63681 4.46484 9.33875 4.76291 9.33875 5.13067V6.72865C9.33875 7.09616 9.63681 7.39448 10.0046 7.39448Z" fill="#FF741C" stroke="#FF741C" stroke-width="0.426131"/>
<path d="M12.6679 7.39448C13.0354 7.39448 13.3337 7.09616 13.3337 6.72865V5.13067C13.3337 4.76291 13.0354 4.46484 12.6679 4.46484C12.3001 4.46484 12.0021 4.76291 12.0021 5.13067V6.72865C12.0021 7.09616 12.3001 7.39448 12.6679 7.39448Z" fill="#FF741C" stroke="#FF741C" stroke-width="0.426131"/>
<path d="M15.3312 7.39448C15.6987 7.39448 15.9971 7.09616 15.9971 6.72865V5.13067C15.9971 4.76291 15.6987 4.46484 15.3312 4.46484C14.9635 4.46484 14.6654 4.76291 14.6654 5.13067V6.72865C14.6654 7.09616 14.9635 7.39448 15.3312 7.39448Z" fill="#FF741C" stroke="#FF741C" stroke-width="0.426131"/>
<path d="M17.9946 7.39448C18.3621 7.39448 18.6604 7.09616 18.6604 6.72865V5.13067C18.6604 4.76291 18.3621 4.46484 17.9946 4.46484C17.6268 4.46484 17.3287 4.76291 17.3287 5.13067V6.72865C17.3287 7.09616 17.6268 7.39448 17.9946 7.39448Z" fill="#FF741C" stroke="#FF741C" stroke-width="0.426131"/>
<path d="M30.3503 27.3268C29.1294 26.1057 27.4328 25.6435 25.8515 25.9385V23.8926C25.9779 23.7475 26.0916 23.5852 26.1896 23.4057C26.5355 22.7729 26.6502 22.0023 26.5129 21.2353C26.412 20.6717 26.1821 20.1539 25.8512 19.731V16.3139C25.8512 14.0082 24.2946 11.985 22.0659 11.3941L20.8906 11.0825C20.4086 10.9545 20.0599 10.5441 20.0016 10.058H20.4248C21.3611 10.058 22.1226 9.29647 22.1226 8.36015V3.49962C22.1226 2.5633 21.3611 1.80176 20.4248 1.80176H7.57431C6.63825 1.80176 5.87646 2.5633 5.87646 3.49962V8.36015C5.87646 9.29647 6.63825 10.058 7.57431 10.058H7.99748C7.93922 10.5441 7.5907 10.9545 7.10849 11.0825L5.93341 11.3941C3.70446 11.985 2.14783 14.0082 2.14783 16.3139V31.4979C2.14783 33.9209 4.1193 35.8923 6.54228 35.8923H21.4568C21.9871 35.8923 22.5018 35.7984 22.9916 35.6153C23.4579 35.7982 23.9518 35.8903 24.446 35.8903C25.2679 35.8903 26.0898 35.6374 26.7834 35.1318C28.3356 36.263 30.5292 36.1287 31.9293 34.729L32.0325 34.6254C32.7826 33.8753 33.1959 32.8779 33.1959 31.8173C33.1959 30.7564 32.7826 29.7592 32.0325 29.0088L30.3503 27.3268ZM24.5823 20.3175C24.898 20.5921 25.1181 21.0015 25.2021 21.4704C25.2861 21.9394 25.2218 22.3997 25.021 22.767C24.8465 23.0864 24.5877 23.2916 24.2928 23.3444C23.6389 23.4611 22.9505 22.8016 22.7892 21.9027V21.903C22.6282 21.0041 23.0446 20.1461 23.6985 20.0288C23.9937 19.9762 24.3074 20.0784 24.5823 20.3175ZM7.20837 8.36041V3.49988C7.20837 3.29779 7.37248 3.13367 7.57457 3.13367H20.425C20.6269 3.13367 20.7912 3.29779 20.7912 3.49988V8.36041C20.7912 8.56224 20.6269 8.72661 20.425 8.72661H7.57457C7.37248 8.72661 7.20837 8.56224 7.20837 8.36041ZM13.9998 34.5607H6.54254C4.85353 34.5607 3.47974 33.1866 3.47974 31.4979V31.23H14.5325C14.9 31.23 15.1983 30.9319 15.1983 30.5642V26.9021C15.1983 26.5346 14.9 26.2363 14.5325 26.2363C14.1647 26.2363 13.8666 26.5346 13.8666 26.9021V29.8983H3.47974V17.9135H13.8666V20.9097C13.8666 21.2774 14.1647 21.5755 14.5325 21.5755C14.9 21.5755 15.1983 21.2774 15.1983 20.9097V17.2476C15.1983 16.8801 14.9 16.5818 14.5325 16.5818H3.47974V16.3142C3.47974 14.6116 4.62907 13.1177 6.27465 12.6813L7.44999 12.3697C8.51557 12.0872 9.27269 11.1483 9.33433 10.0583H18.665C18.7266 11.1483 19.4838 12.0872 20.5496 12.3697L21.7247 12.6813C23.3705 13.1177 24.5199 14.6116 24.5199 16.3142V18.7829C24.1773 18.6779 23.8197 18.6542 23.4636 18.7182C22.0758 18.9668 21.1853 20.5008 21.4786 22.1378C21.7447 23.6224 22.8948 24.6895 24.1419 24.6895C24.2673 24.6895 24.3935 24.6786 24.5199 24.6565V26.3869C24.0496 26.6228 23.6085 26.9351 23.2168 27.3268L21.5346 29.0091C20.7845 29.7592 20.3712 30.7564 20.3712 31.8173C20.3712 32.848 20.7621 33.8179 21.4721 34.5602C21.4672 34.5602 21.462 34.5607 21.4571 34.5607H13.9998ZM31.091 33.6839L30.9875 33.7874C29.9583 34.8166 28.2836 34.8166 27.2544 33.7874C26.9943 33.5273 26.5727 33.5273 26.3126 33.7874C25.2835 34.8166 23.6088 34.8166 22.5796 33.7874L22.4761 33.6839C21.9775 33.1853 21.7028 32.5224 21.7028 31.8173C21.7028 31.1122 21.9775 30.4492 22.4761 29.9506L24.1581 28.2684C24.8822 27.5445 25.8325 27.1827 26.7834 27.1827C27.734 27.1827 28.6852 27.5448 29.4087 28.2684L31.091 29.9506C31.5896 30.4492 31.8642 31.1122 31.8642 31.8173C31.8642 32.5224 31.5896 33.1853 31.091 33.6839Z" fill="#FF741C" stroke="#FF741C" stroke-width="0.426131"/>
<path d="M29.0392 24.6552C29.1682 24.6783 29.297 24.6895 29.425 24.6895C30.6721 24.6895 31.8222 23.6223 32.0885 22.1378C32.3819 20.5008 31.4911 18.9668 30.1033 18.7181C29.4036 18.5922 28.6959 18.8037 28.111 19.3124C27.5669 19.7858 27.1916 20.4685 27.054 21.2355C26.9167 22.0023 27.0314 22.7732 27.3773 23.4057C27.7495 24.0861 28.3393 24.5298 29.0392 24.6552ZM28.3648 21.4704C28.4488 21.0014 28.6689 20.5921 28.9846 20.3174C29.2122 20.1195 29.4666 20.0152 29.7147 20.0152C29.7664 20.0152 29.8177 20.0196 29.8684 20.0287C30.5223 20.146 30.9387 21.004 30.7777 21.9026C30.6167 22.8015 29.928 23.4608 29.2741 23.3443C28.9792 23.2915 28.7204 23.0863 28.5456 22.7669C28.3451 22.3997 28.2808 21.9393 28.3648 21.4704Z" fill="#FF741C" stroke="#FF741C" stroke-width="0.426131"/>
<path d="M21.6971 26.9323C22.0121 26.3562 22.1169 25.6553 21.9918 24.9585C21.7245 23.4664 20.4721 22.437 19.2008 22.6656C17.9292 22.8934 17.1123 24.2929 17.3797 25.7851C17.5045 26.4819 17.8463 27.1029 18.3417 27.5336C18.7724 27.9084 19.2952 28.1095 19.8172 28.1095C19.9353 28.1095 20.0536 28.0991 20.1709 28.0783C20.8048 27.9646 21.3611 27.5469 21.6971 26.9323ZM20.5288 26.2935C20.4456 26.4457 20.2578 26.7097 19.9358 26.7674C19.6141 26.8246 19.3465 26.6426 19.2154 26.5287C18.9524 26.3 18.761 25.9432 18.6905 25.5502C18.555 24.7939 18.8963 24.0729 19.4357 23.9764C19.4768 23.9691 19.5179 23.9655 19.559 23.9655C20.0594 23.9655 20.5559 24.4945 20.6812 25.1934C20.7517 25.5866 20.6961 25.9874 20.5288 26.2935Z" fill="#FF741C" stroke="#FF741C" stroke-width="0.426131"/>
<path d="M34.3655 22.6653C33.0934 22.4378 31.8419 23.4661 31.5742 24.9583C31.4494 25.655 31.5542 26.356 31.8692 26.9321C32.2052 27.5467 32.7613 27.9644 33.3954 28.0778C33.5124 28.0988 33.6308 28.1092 33.7491 28.1092C34.2711 28.1092 34.7939 27.9082 35.2246 27.5334C35.7201 27.1027 36.0616 26.4816 36.1864 25.7848C36.454 24.2927 35.6371 22.8932 34.3655 22.6653ZM34.8758 25.55C34.8053 25.943 34.6139 26.2998 34.351 26.5284C34.2199 26.6423 33.9522 26.8247 33.6302 26.7672C33.3085 26.7094 33.1207 26.4455 33.0375 26.2933C32.8703 25.9872 32.8146 25.5864 32.8851 25.1931C33.0105 24.4943 33.507 23.9653 34.0074 23.9653C34.0485 23.9653 34.0896 23.9689 34.1304 23.9759C34.6701 24.0727 35.0113 24.7936 34.8758 25.55Z" fill="#FF741C" stroke="#FF741C" stroke-width="0.426131"/>
<path d="M11.0699 23.2397H9.33874V21.5086C9.33874 21.1411 9.04041 20.8428 8.67291 20.8428C8.30514 20.8428 8.00708 21.1411 8.00708 21.5086V23.2397H6.27593C5.90817 23.2397 5.61011 23.5381 5.61011 23.9056C5.61011 24.2733 5.90817 24.5714 6.27593 24.5714H8.00708V26.3026C8.00708 26.6703 8.30514 26.9684 8.67291 26.9684C9.04041 26.9684 9.33874 26.6703 9.33874 26.3026V24.5714H11.0699C11.4374 24.5714 11.7357 24.2733 11.7357 23.9056C11.7357 23.5381 11.4374 23.2397 11.0699 23.2397Z" fill="#FF741C" stroke="#FF741C" stroke-width="0.426131"/>
<path d="M14.5322 23.2402C14.3569 23.2402 14.1852 23.3115 14.0614 23.4353C13.9373 23.5591 13.8663 23.731 13.8663 23.9061C13.8663 24.0811 13.9373 24.253 14.0614 24.3768C14.1852 24.5006 14.3569 24.5719 14.5322 24.5719C14.7072 24.5719 14.8789 24.5006 15.0027 24.3768C15.1267 24.253 15.198 24.0811 15.198 23.9061C15.198 23.731 15.1267 23.5591 15.0027 23.4353C14.8789 23.3115 14.7072 23.2402 14.5322 23.2402Z" fill="#FF741C" stroke="#FF741C" stroke-width="0.426131"/>
</svg>
