<svg width="50" height="50" viewBox="0 0 50 50" fill="none" xmlns="http://www.w3.org/2000/svg">
<g clip-path="url(#clip0_1_2018)">
<path d="M44.5487 47.0373L43.5713 15.7589C43.5204 14.1318 42.2326 12.8571 40.6394 12.8571H33.7972V8.7516C33.3126 -2.92175 16.6834 -2.91266 16.2032 8.7516V12.8571H9.36077C7.76763 12.8571 6.47975 14.1317 6.42892 15.7589L5.45147 47.0373C5.42743 47.8047 5.71411 48.5366 6.25845 49.0983C6.81393 49.6714 7.58837 50.0001 8.38322 50.0001H41.6168C42.4116 50.0001 43.186 49.6714 43.7415 49.0982C44.286 48.5364 44.5727 47.8044 44.5487 47.0373ZM18.158 8.7516C18.535 -0.327603 31.4687 -0.320663 31.8422 8.7516V12.8571H18.158V8.7516ZM42.3378 47.7376C42.1483 47.9331 41.8856 48.0451 41.6169 48.0451H8.38322C8.11443 48.0451 7.85159 47.9331 7.66226 47.7376C7.48925 47.5593 7.39806 47.3322 7.40539 47.0983L8.38283 15.8199C8.40053 15.2547 8.83011 14.812 9.36077 14.812H16.2031V16.4684C16.2548 17.7653 18.1068 17.7643 18.158 16.4684V14.812H31.8422V16.4684C31.8939 17.7653 33.7459 17.7643 33.7971 16.4684V14.812H40.6393C41.17 14.812 41.5996 15.2548 41.6173 15.8199L42.5947 47.0983C42.6021 47.332 42.5108 47.5592 42.3378 47.7376Z" fill="white"/>
<path d="M29.3213 34.4948C29.2557 34.4785 29.0639 34.4305 28.9978 34.4028C28.9382 34.3412 28.7959 34.1323 28.7176 34.0175C26.9938 31.4121 23.0058 31.4128 21.2825 34.0176C21.2042 34.1324 21.0619 34.3413 21.0024 34.4028C20.9362 34.4305 20.7444 34.4785 20.6787 34.4948C16.9057 35.5174 17.5772 40.9596 21.4811 41.043H28.5187C32.4256 40.9585 33.0921 35.5158 29.3213 34.4948ZM28.5189 39.0882H21.4813C19.8662 39.0453 19.6032 36.8257 21.1528 36.3915C22.1069 36.1531 22.35 35.9229 22.8981 35.1183C23.8735 33.6443 26.127 33.6446 27.102 35.1183C27.6503 35.9229 27.8934 36.1531 28.8474 36.3914C30.3982 36.8264 30.133 39.0457 28.5189 39.0882Z" fill="white"/>
<path d="M25.0001 30.7526C28.9081 30.7031 28.9063 23.8173 25.0001 23.769C23.5429 23.769 22.0677 24.9684 22.0677 27.2609C22.0677 28.2778 22.3625 29.1525 22.9204 29.7901C23.4554 30.4017 24.2134 30.7526 25.0001 30.7526ZM25.0001 25.7239C25.2261 25.7239 25.4421 25.8286 25.6084 26.0186C26.2824 26.807 26.0275 28.8234 25.0001 28.7977C23.6917 28.8107 23.6925 25.7104 25.0001 25.7239Z" fill="white"/>
<path d="M20.2522 32.8376C21.0701 32.0196 21.3301 30.7703 20.9655 29.4098C20.7023 28.4274 20.1911 27.659 19.4873 27.1873C18.8122 26.7349 17.9892 26.5922 17.2293 26.7959C15.8218 27.1731 14.7073 28.7133 15.3007 30.9276C15.6652 32.2882 16.5152 33.2403 17.6324 33.5397C18.5632 33.792 19.558 33.5354 20.2522 32.8376ZM18.1383 31.6513C17.7139 31.5377 17.3679 31.0894 17.1889 30.4217C16.9142 29.3963 17.2654 28.8102 17.7353 28.6843C18.3075 28.5664 18.7989 28.9478 19.0772 29.9158C19.2562 30.5836 19.1807 31.1447 18.8699 31.4554C18.6763 31.649 18.4029 31.7219 18.1383 31.6513Z" fill="white"/>
<path d="M31.3664 26.7977C30.2491 27.0969 29.3993 28.0491 29.0347 29.4097C28.7714 30.3919 28.8299 31.3131 29.2037 32.0734C29.5621 32.8027 30.2035 33.3378 30.9634 33.5414C32.5732 33.9099 34.0829 33.0684 34.6996 30.9276C35.0641 29.5671 34.8041 28.3177 33.9863 27.4998C33.293 26.8064 32.3137 26.5441 31.3664 26.7977ZM32.8112 30.4216C32.5364 31.4471 31.9391 31.7795 31.4693 31.6531C31.251 31.5946 31.0694 31.4377 30.9581 31.2111C30.7963 30.882 30.7842 30.434 30.923 29.9157C31.102 29.248 31.448 28.7998 31.8724 28.6861C32.1323 28.6157 32.4101 28.6873 32.6039 28.8822C32.9146 29.1926 32.9902 29.7538 32.8112 30.4216Z" fill="white"/>
<path d="M25.0002 18.7217C17.4547 18.7217 11.3159 24.8604 11.3159 32.4059C12.0676 50.5599 37.9355 50.5547 38.6844 32.4058C38.6844 24.8604 32.5457 18.7217 25.0002 18.7217ZM25.0002 44.1353C18.5326 44.1353 13.2708 38.8735 13.2708 32.4059C13.9151 16.8454 36.0875 16.8499 36.7295 32.406C36.7295 38.8735 31.4677 44.1353 25.0002 44.1353Z" fill="white"/>
</g>
<defs>
<clipPath id="clip0_1_2018">
<rect width="50" height="50" fill="white"/>
</clipPath>
</defs>
</svg>
