<svg width="50" height="50" viewBox="0 0 50 50" fill="none" xmlns="http://www.w3.org/2000/svg">
<g clip-path="url(#clip0_1_1940)">
<path d="M20.5078 33.7449C20.2488 33.7449 20.0004 33.8478 19.8173 34.0309C19.6341 34.214 19.5312 34.4624 19.5312 34.7214C19.5312 34.9804 19.6341 35.2288 19.8173 35.412C20.0004 35.5951 20.2488 35.698 20.5078 35.698C20.7668 35.698 21.0152 35.5951 21.1983 35.412C21.3815 35.2288 21.4844 34.9804 21.4844 34.7214C21.4844 34.4624 21.3815 34.214 21.1983 34.0309C21.0152 33.8478 20.7668 33.7449 20.5078 33.7449Z" fill="#6FC508"/>
<path d="M16.6625 35.698C17.2018 35.698 17.6391 35.2608 17.6391 34.7214C17.6391 34.1821 17.2018 33.7449 16.6625 33.7449C16.1232 33.7449 15.6859 34.1821 15.6859 34.7214C15.6859 35.2608 16.1232 35.698 16.6625 35.698Z" fill="#6FC508"/>
<path d="M12.8192 35.698C13.3585 35.698 13.7957 35.2608 13.7957 34.7214C13.7957 34.1821 13.3585 33.7449 12.8192 33.7449C12.2798 33.7449 11.8426 34.1821 11.8426 34.7214C11.8426 35.2608 12.2798 35.698 12.8192 35.698Z" fill="#6FC508"/>
<path d="M16.6625 17.7812C15.6563 17.7824 14.6917 18.1826 13.9802 18.894C13.2687 19.6054 12.8684 20.57 12.8672 21.5762C12.8482 21.8288 12.8844 22.0825 12.9734 22.3197C13.0624 22.5569 13.202 22.7718 13.3824 22.9496C13.9129 23.382 14.5961 23.2422 15.3199 23.0938C15.7603 22.9888 16.2101 22.9284 16.6625 22.9137C17.1149 22.9284 17.5648 22.9887 18.0051 23.0938C18.3453 23.1763 18.6928 23.2251 19.0426 23.2395C19.367 23.2531 19.6857 23.1503 19.941 22.9496C20.1214 22.7718 20.2609 22.5568 20.3498 22.3196C20.4387 22.0824 20.4749 21.8288 20.4559 21.5762C20.4547 20.5703 20.0548 19.606 19.3437 18.8946C18.6326 18.1832 17.6684 17.7828 16.6625 17.7812ZM19.0625 21.875C18.7981 21.8606 18.5356 21.8205 18.2789 21.7555C17.7483 21.6309 17.2062 21.5612 16.6613 21.5477C16.1164 21.5612 15.5744 21.6309 15.0438 21.7555C14.7875 21.8209 14.5254 21.861 14.2613 21.875C14.2409 21.7771 14.2319 21.6773 14.2344 21.5773C14.2425 20.9388 14.5018 20.3291 14.9563 19.8803C15.4107 19.4316 16.0237 19.18 16.6623 19.18C17.301 19.18 17.9139 19.4316 18.3683 19.8803C18.8228 20.3291 19.0821 20.9388 19.0902 21.5773C19.0924 21.6773 19.0831 21.7772 19.0625 21.875Z" fill="#6FC508"/>
<path d="M16.6625 16.2358C17.8148 16.2358 18.5797 14.7812 18.5797 13.819C18.5797 13.3106 18.3777 12.8229 18.0181 12.4634C17.6586 12.1038 17.171 11.9019 16.6625 11.9019C16.154 11.9019 15.6664 12.1038 15.3068 12.4634C14.9473 12.8229 14.7453 13.3106 14.7453 13.819C14.7453 14.7812 15.5101 16.2358 16.6625 16.2358ZM16.6625 13.269C16.8083 13.2691 16.9482 13.3271 17.0513 13.4302C17.1544 13.5334 17.2124 13.6732 17.2125 13.819C17.2063 14.0239 17.1539 14.2247 17.0592 14.4064C16.9645 14.5882 16.8299 14.7462 16.6656 14.8687C16.5012 14.8468 16.1137 14.2827 16.1137 13.819C16.1139 13.6734 16.1717 13.5338 16.2746 13.4308C16.3774 13.3277 16.5169 13.2696 16.6625 13.269Z" fill="#6FC508"/>
<path d="M14.0125 17.3337C14.2126 17.1086 14.3515 16.836 14.4162 16.542C14.4808 16.2479 14.4689 15.9421 14.3816 15.654C14.272 15.1345 14.0224 14.655 13.6598 14.2673C13.4824 14.0862 13.2708 13.9421 13.0374 13.8433C12.8039 13.7445 12.5532 13.693 12.2997 13.6917C12.0462 13.6904 11.795 13.7394 11.5605 13.8358C11.3261 13.9323 11.1131 14.0742 10.9339 14.2535C10.7547 14.4328 10.6128 14.6458 10.5164 14.8803C10.42 15.1147 10.3711 15.366 10.3725 15.6195C10.3738 15.873 10.4254 16.1237 10.5243 16.3571C10.6231 16.5905 10.7673 16.802 10.9484 16.9794C11.336 17.3421 11.8154 17.5919 12.3348 17.7016C12.512 17.7414 12.693 17.7619 12.8746 17.763C13.0833 17.7711 13.2916 17.7373 13.487 17.6636C13.6825 17.5898 13.8612 17.4776 14.0125 17.3337ZM11.9141 16.0157C11.8105 15.9125 11.7521 15.7723 11.7519 15.626C11.7516 15.4798 11.8095 15.3394 11.9127 15.2358C12.0159 15.1322 12.1561 15.0739 12.3023 15.0736C12.4486 15.0733 12.589 15.1312 12.6926 15.2344C12.8333 15.3843 12.9383 15.564 12.9996 15.7602C13.061 15.9564 13.0771 16.1639 13.0469 16.3673C12.8437 16.3987 12.6361 16.3834 12.4398 16.3225C12.2435 16.2616 12.0637 16.1566 11.9141 16.0157Z" fill="#6FC508"/>
<path d="M19.6656 14.2682C19.3029 14.6559 19.0533 15.1355 18.9438 15.655C18.8568 15.9428 18.845 16.2482 18.9096 16.5419C18.9741 16.8356 19.1128 17.1078 19.3125 17.3327C19.464 17.4768 19.6429 17.5891 19.8385 17.6629C20.0342 17.7367 20.2426 17.7705 20.4516 17.7624C20.6331 17.7614 20.8139 17.7408 20.991 17.7011C21.5104 17.5915 21.9899 17.3417 22.3773 16.9788C22.7308 16.618 22.9277 16.1323 22.9252 15.6271C22.9226 15.122 22.7209 14.6383 22.3637 14.2811C22.0066 13.9239 21.5229 13.722 21.0178 13.7193C20.5127 13.7166 20.0269 13.9133 19.666 14.2667L19.6656 14.2682ZM21.4105 16.0155C21.2611 16.156 21.0818 16.2609 20.8861 16.3222C20.6904 16.3834 20.4833 16.3996 20.2805 16.3694C20.1797 16.2374 20.3039 15.5667 20.632 15.2366C20.6832 15.1855 20.7439 15.1449 20.8107 15.1173C20.8775 15.0896 20.9491 15.0754 21.0214 15.0754C21.0937 15.0754 21.1653 15.0897 21.2321 15.1174C21.2989 15.1451 21.3596 15.1857 21.4107 15.2368C21.4619 15.2879 21.5024 15.3487 21.5301 15.4155C21.5577 15.4823 21.5719 15.5539 21.5719 15.6262C21.5719 15.6985 21.5576 15.7701 21.53 15.8369C21.5023 15.9037 21.4617 15.9644 21.4105 16.0155Z" fill="#6FC508"/>
<path d="M16.6625 8.52271C14.7709 8.52271 12.9217 9.08365 11.3489 10.1346C9.77608 11.1855 8.55023 12.6793 7.82637 14.4269C7.10251 16.1746 6.91316 18.0976 7.28225 19.9529C7.65135 21.8082 8.56231 23.5123 9.89995 24.8499C11.2376 26.1874 12.9418 27.0982 14.7971 27.4672C16.6524 27.8361 18.5754 27.6466 20.323 26.9226C22.0706 26.1986 23.5643 24.9726 24.6151 23.3997C25.6659 21.8268 26.2267 19.9776 26.2265 18.086C26.2234 15.5505 25.2148 13.1197 23.4218 11.3269C21.6289 9.53406 19.198 8.5256 16.6625 8.52271ZM16.6625 26.2833C15.0413 26.2833 13.4565 25.8025 12.1086 24.9019C10.7606 24.0012 9.71001 22.721 9.0896 21.2233C8.46918 19.7255 8.30684 18.0774 8.62308 16.4874C8.93933 14.8974 9.71997 13.4368 10.8663 12.2904C12.0126 11.1441 13.4731 10.3634 15.0631 10.047C16.6531 9.73073 18.3012 9.893 19.799 10.5133C21.2968 11.1337 22.577 12.1842 23.4778 13.5322C24.3785 14.8801 24.8593 16.4648 24.8594 18.086C24.8571 20.2593 23.9928 22.3429 22.4561 23.8797C20.9194 25.4165 18.8358 26.2809 16.6625 26.2833Z" fill="#6FC508"/>
<path d="M38.6957 7.56953C36.4411 7.56701 34.247 8.29914 32.4457 9.65508V5.22578C32.4444 4.0734 31.986 2.96859 31.1712 2.1537C30.3564 1.3388 29.2516 0.880354 28.0992 0.878906H5.22578C4.07333 0.88025 2.96847 1.33865 2.15356 2.15356C1.33865 2.96847 0.88025 4.07333 0.878906 5.22578V44.7742C0.88025 45.9267 1.33865 47.0315 2.15356 47.8464C2.96847 48.6613 4.07333 49.1198 5.22578 49.1211H28.0992C29.2517 49.1198 30.3565 48.6613 31.1714 47.8464C31.9863 47.0315 32.4448 45.9267 32.4461 44.7742V28.4215H38.6961C41.4502 28.4046 44.0857 27.2987 46.0272 25.3453C47.9687 23.3919 49.0585 20.7496 49.0585 17.9955C49.0585 15.2414 47.9687 12.5991 46.0272 10.6457C44.0857 8.69227 41.4498 7.58639 38.6957 7.56953ZM31.0785 44.7742C31.0777 45.5642 30.7635 46.3216 30.2049 46.8803C29.6463 47.4389 28.8888 47.7531 28.0988 47.7539H5.22578C4.43581 47.753 3.67845 47.4387 3.11985 46.8801C2.56125 46.3216 2.24702 45.5642 2.24609 44.7742V5.22578C2.24702 4.4358 2.56125 3.67845 3.11985 3.11985C3.67845 2.56125 4.43581 2.24702 5.22578 2.24609H28.0992C28.8892 2.24692 29.6466 2.56112 30.2053 3.11974C30.7639 3.67836 31.0781 4.43577 31.0789 5.22578V10.8859C30.5239 11.4805 30.0398 12.1375 29.6363 12.8438V5.22656C29.6458 5.02218 29.6125 4.81807 29.5386 4.62728C29.4647 4.43649 29.3518 4.26321 29.2072 4.11851C29.0625 3.97382 28.8893 3.86089 28.6985 3.78695C28.5077 3.713 28.3036 3.67966 28.0992 3.68906H5.22617C5.02175 3.67961 4.81761 3.7129 4.62679 3.78682C4.43597 3.86074 4.26267 3.97366 4.11797 4.11836C3.97327 4.26306 3.86035 4.43636 3.78643 4.62718C3.71251 4.818 3.67922 5.02214 3.68867 5.22656V41.6492C3.67922 41.8536 3.71251 42.0578 3.78643 42.2486C3.86035 42.4394 3.97327 42.6127 4.11797 42.7574C4.26267 42.9021 4.43597 43.015 4.62679 43.089C4.81761 43.1629 5.02175 43.1962 5.22617 43.1867H28.0992C28.3036 43.1961 28.5077 43.1628 28.6985 43.0888C28.8893 43.0149 29.0625 42.902 29.2072 42.7573C29.3518 42.6126 29.4647 42.4393 29.5386 42.2485C29.6125 42.0577 29.6458 41.8536 29.6363 41.6492V28.0277C30.0655 28.2851 30.5566 28.4212 31.057 28.4215H31.0789L31.0785 44.7742ZM28.2688 41.6492C28.2688 41.7922 28.2418 41.8195 28.0988 41.8195H5.22617C5.0832 41.8195 5.05586 41.7922 5.05586 41.6492V5.22617C5.05586 5.0832 5.0832 5.05586 5.22617 5.05586H28.0992C28.2422 5.05586 28.2691 5.0832 28.2691 5.22617L28.2688 41.6492ZM38.6957 27.0543H31.057C30.6803 27.0538 30.3192 26.9039 30.0529 26.6375C29.7865 26.3711 29.6367 26.0099 29.6363 25.6332V17.9949C29.6364 16.2033 30.1678 14.4518 31.1632 12.9622C32.1587 11.4725 33.5735 10.3114 35.2288 9.62583C36.8841 8.94022 38.7055 8.76086 40.4627 9.11041C42.22 9.45997 43.8341 10.3227 45.101 11.5896C46.3679 12.8565 47.2307 14.4707 47.5802 16.2279C47.9298 17.9851 47.7504 19.8066 47.0648 21.4619C46.3792 23.1172 45.2181 24.532 43.7285 25.5274C42.2388 26.5229 40.4874 27.0542 38.6957 27.0543Z" fill="#6FC508"/>
<path d="M20.1254 44.8582H13.2C13.0187 44.8582 12.8448 44.9302 12.7166 45.0584C12.5884 45.1866 12.5164 45.3604 12.5164 45.5417C12.5164 45.723 12.5884 45.8969 12.7166 46.0251C12.8448 46.1533 13.0187 46.2253 13.2 46.2253H20.1254C20.3067 46.2253 20.4806 46.1533 20.6088 46.0251C20.737 45.8969 20.809 45.723 20.809 45.5417C20.809 45.3604 20.737 45.1866 20.6088 45.0584C20.4806 44.9302 20.3067 44.8582 20.1254 44.8582Z" fill="#6FC508"/>
<path d="M21.6797 30.9272H11.6445C10.6449 30.9374 9.68961 31.3416 8.9863 32.0521C8.283 32.7626 7.88849 33.7219 7.88849 34.7216C7.88849 35.7213 8.283 36.6806 8.9863 37.3911C9.68961 38.1015 10.6449 38.5058 11.6445 38.5159H21.6797C22.6793 38.5058 23.6346 38.1015 24.3379 37.3911C25.0412 36.6806 25.4357 35.7213 25.4357 34.7216C25.4357 33.7219 25.0412 32.7626 24.3379 32.0521C23.6346 31.3416 22.6793 30.9374 21.6797 30.9272ZM21.6797 37.1487H11.6445C11.0061 37.1406 10.3966 36.8813 9.94807 36.4271C9.4995 35.9728 9.24797 35.36 9.24797 34.7216C9.24797 34.0831 9.4995 33.4704 9.94807 33.0161C10.3966 32.5618 11.0061 32.3025 11.6445 32.2944H21.6797C22.3181 32.3025 22.9276 32.5618 23.3761 33.0161C23.8247 33.4704 24.0762 34.0831 24.0762 34.7216C24.0762 35.36 23.8247 35.9728 23.3761 36.4271C22.9276 36.8813 22.3181 37.1406 21.6797 37.1487Z" fill="#6FC508"/>
<path d="M42.3496 15.8543H40.8359V14.3406C40.8359 13.7727 40.6103 13.228 40.2087 12.8264C39.8071 12.4248 39.2625 12.1992 38.6945 12.1992C38.1266 12.1992 37.5819 12.4248 37.1803 12.8264C36.7787 13.228 36.5531 13.7727 36.5531 14.3406V15.8543H35.039C34.4711 15.8543 33.9264 16.0799 33.5248 16.4815C33.1233 16.8831 32.8976 17.4278 32.8976 17.9957C32.8976 18.5636 33.1233 19.1083 33.5248 19.5099C33.9264 19.9115 34.4711 20.1371 35.039 20.1371H36.5527V21.6504C36.5527 22.2183 36.7783 22.763 37.1799 23.1646C37.5815 23.5662 38.1262 23.7918 38.6941 23.7918C39.2621 23.7918 39.8067 23.5662 40.2083 23.1646C40.6099 22.763 40.8355 22.2183 40.8355 21.6504V20.1371H42.3492C42.9171 20.1371 43.4618 19.9115 43.8634 19.5099C44.265 19.1083 44.4906 18.5636 44.4906 17.9957C44.4906 17.4278 44.265 16.8831 43.8634 16.4815C43.4618 16.0799 42.9175 15.8543 42.3496 15.8543ZM42.3496 18.7699H40.1523C40.0625 18.7699 39.9736 18.7875 39.8907 18.8219C39.8077 18.8562 39.7323 18.9065 39.6688 18.97C39.6054 19.0335 39.555 19.1089 39.5207 19.1919C39.4863 19.2748 39.4687 19.3637 39.4687 19.4535V21.6504C39.4687 21.8557 39.3872 22.0527 39.242 22.1978C39.0968 22.343 38.8999 22.4246 38.6945 22.4246C38.4892 22.4246 38.2923 22.343 38.1471 22.1978C38.0019 22.0527 37.9203 21.8557 37.9203 21.6504V19.4531C37.9203 19.3633 37.9027 19.2744 37.8684 19.1915C37.834 19.1085 37.7837 19.0331 37.7202 18.9696C37.6567 18.9061 37.5813 18.8558 37.4984 18.8215C37.4154 18.7871 37.3265 18.7695 37.2367 18.7695H35.039C34.8337 18.7695 34.6368 18.688 34.4916 18.5428C34.3464 18.3976 34.2648 18.2006 34.2648 17.9953C34.2648 17.79 34.3464 17.5931 34.4916 17.4479C34.6368 17.3027 34.8337 17.2211 35.039 17.2211H37.2363C37.3261 17.2211 37.415 17.2035 37.498 17.1692C37.5809 17.1348 37.6563 17.0845 37.7198 17.021C37.7833 16.9575 37.8336 16.8821 37.868 16.7992C37.9023 16.7162 37.92 16.6273 37.9199 16.5375V14.3406C37.9202 14.1353 38.0019 13.9385 38.1472 13.7934C38.2924 13.6482 38.4892 13.5666 38.6945 13.5664C38.7965 13.5654 38.8976 13.5847 38.992 13.6232C39.0864 13.6618 39.1721 13.7188 39.2442 13.7909C39.3162 13.863 39.3732 13.9487 39.4117 14.0431C39.4502 14.1375 39.4694 14.2387 39.4683 14.3406V16.5379C39.4683 16.6277 39.4859 16.7166 39.5203 16.7996C39.5546 16.8825 39.605 16.9579 39.6685 17.0214C39.7319 17.0849 39.8073 17.1352 39.8903 17.1696C39.9732 17.2039 40.0622 17.2215 40.1519 17.2215H42.3492C42.5545 17.2215 42.7515 17.3031 42.8967 17.4482C43.0419 17.5934 43.1234 17.7904 43.1234 17.9957C43.1234 18.201 43.0419 18.398 42.8967 18.5432C42.7515 18.6884 42.5549 18.7699 42.3496 18.7699Z" fill="#6FC508"/>
</g>
<defs>
<clipPath id="clip0_1_1940">
<rect width="50" height="50" fill="white"/>
</clipPath>
</defs>
</svg>
