<svg width="54" height="42" viewBox="0 0 54 42" fill="none" xmlns="http://www.w3.org/2000/svg">
<path d="M4.85393 38.6029C1.82022 35.2059 0 31.5 0 25.3235C0 14.5147 7.58427 4.94118 18.2022 0L20.9326 4.01471C10.9213 9.57353 8.79775 16.6765 8.19101 21.3088C9.70787 20.3824 11.8315 20.0735 13.9551 20.3824C19.4157 21 23.6629 25.3235 23.6629 31.1912C23.6629 33.9706 22.4494 36.75 20.6292 38.9118C18.5056 41.0735 16.0787 42 13.0449 42C9.70787 42 6.67416 40.4559 4.85393 38.6029ZM35.191 38.6029C32.1573 35.2059 30.3371 31.5 30.3371 25.3235C30.3371 14.5147 37.9214 4.94118 48.5393 0L51.2697 4.01471C41.2584 9.57353 39.1348 16.6765 38.5281 21.3088C40.0449 20.3824 42.1685 20.0735 44.2921 20.3824C49.7528 21 54 25.3235 54 31.1912C54 33.9706 52.7865 36.75 50.9663 38.9118C49.1461 41.0735 46.4157 42 43.382 42C40.0449 42 37.0112 40.4559 35.191 38.6029Z" fill="#FF721D"/>
</svg>
