<svg width="21" height="20" viewBox="0 0 21 20" fill="none" xmlns="http://www.w3.org/2000/svg">
<path d="M20.655 18.0942L16.6896 14.3287C17.969 12.7764 18.6632 10.8595 18.6607 8.88603C18.6607 7.12854 18.1134 5.41052 17.0882 3.94922C16.063 2.48792 14.6058 1.34897 12.9009 0.676412C11.196 0.00385015 9.31998 -0.172123 7.51007 0.170746C5.70017 0.513616 4.03766 1.35993 2.73279 2.60266C1.42792 3.84539 0.539296 5.42873 0.179284 7.15245C-0.180729 8.87617 0.00404265 10.6629 0.710233 12.2866C1.41642 13.9103 2.61231 15.2981 4.14668 16.2745C5.68104 17.2509 7.48497 17.7721 9.33033 17.7721C11.4024 17.7745 13.4152 17.1134 15.0452 15.8949L18.9989 19.6714C19.1073 19.7755 19.2363 19.8582 19.3784 19.9146C19.5205 19.971 19.673 20 19.8269 20C19.9809 20 20.1334 19.971 20.2755 19.9146C20.4176 19.8582 20.5466 19.7755 20.655 19.6714C20.7643 19.5682 20.8511 19.4453 20.9103 19.31C20.9695 19.1746 21 19.0294 21 18.8828C21 18.7362 20.9695 18.591 20.9103 18.4556C20.8511 18.3203 20.7643 18.1974 20.655 18.0942ZM2.33259 8.88603C2.33259 7.56791 2.743 6.2794 3.51192 5.18342C4.28084 4.08745 5.37374 3.23324 6.65241 2.72882C7.93108 2.22439 9.33809 2.09241 10.6955 2.34957C12.053 2.60672 13.2998 3.24145 14.2785 4.1735C15.2571 5.10555 15.9236 6.29306 16.1936 7.58585C16.4636 8.87864 16.325 10.2186 15.7954 11.4364C15.2658 12.6542 14.3688 13.6951 13.2181 14.4274C12.0673 15.1597 10.7144 15.5505 9.33033 15.5505C7.47441 15.5505 5.69451 14.8484 4.38218 13.5986C3.06985 12.3487 2.33259 10.6536 2.33259 8.88603Z" fill="#8D8D8D"/>
</svg>
