<svg width="50" height="46" viewBox="0 0 50 46" fill="none" xmlns="http://www.w3.org/2000/svg">
<path d="M37.0833 0.916585C35.3236 0.918544 33.5751 1.19809 31.9025 1.74492C31.0107 0.726843 29.7361 0.124993 28.3833 0.083252C25.8739 0.219393 23.3914 0.669856 20.9942 1.42409C20.4347 1.58773 19.9162 1.86774 19.4725 2.24575C17.3988 1.36641 15.1691 0.914344 12.9167 0.916585C5.67417 0.916585 0 7.91659 0 16.8499C0 26.2299 6.065 39.0924 22.99 45.2716C23.0058 45.2791 23.0225 45.2841 23.0383 45.2899C23.5939 45.4933 24.1622 45.6877 24.7433 45.8733C24.8261 45.9009 24.9127 45.9155 25 45.9166C25.0875 45.9167 25.1744 45.903 25.2575 45.8758C26.8309 45.3656 28.3769 44.7742 29.8892 44.1041C29.91 44.0966 29.9317 44.0999 29.9525 44.0908C29.9733 44.0816 29.9867 44.0641 30.0067 44.0541C44.6567 37.4999 50 25.6399 50 16.8499C50 7.91659 44.3258 0.916585 37.0833 0.916585ZM48.3333 16.8499C48.2353 21.9074 46.6273 26.82 43.7158 30.9566C41.5567 26.1633 38.7992 21.8158 37.3058 20.3274C36.2188 19.1192 34.8351 18.2158 33.2917 17.7066L32.9483 15.2991C34.3724 14.3109 35.171 12.6458 35.05 10.9166C35.0755 8.18872 34.3604 5.50505 32.9808 3.15159C34.3158 2.77486 35.6962 2.58362 37.0833 2.58325C43.3917 2.58325 48.3333 8.84992 48.3333 16.8499ZM1.66667 16.8499C1.66667 8.84992 6.60833 2.58325 12.9167 2.58325C14.7805 2.58652 16.6276 2.93548 18.3642 3.61242L16.7383 6.04825C16.3931 6.56602 15.8681 6.93744 15.265 7.09075L10.4258 8.29242C9.71009 8.47352 9.20042 9.10619 9.17583 9.84409C9.1225 11.2608 9.31167 15.9899 13.9525 17.5399C14.0376 17.5685 14.1269 17.5831 14.2167 17.5833C16.6745 17.6115 19.1126 18.026 21.4417 18.8116L21.2383 19.2499C19.8985 21.8248 19.1885 24.6807 19.1667 27.5833C19.2223 30.7726 20.4028 33.8397 22.5 36.2433V43.2974C7.19333 37.2741 1.66667 25.4866 1.66667 16.8499ZM10.8333 9.90909L12.5 9.49242V10.9166H10.86C10.8317 10.5816 10.8227 10.2452 10.8333 9.90909ZM30.13 42.1591C30.0426 41.7507 29.999 41.3342 30 40.9166C29.9566 38.847 30.8898 36.8776 32.5192 35.6008C33.8998 34.6389 35.6692 34.4289 37.2367 35.0408C37.5195 35.1348 37.831 35.0709 38.0539 34.873C38.2768 34.6751 38.3772 34.3733 38.3173 34.0813C38.2573 33.7893 38.0462 33.5515 37.7633 33.4574C35.6866 32.6807 33.3605 32.9772 31.545 34.2499C29.484 35.8421 28.2938 38.3125 28.3333 40.9166C28.3301 41.569 28.4142 42.219 28.5833 42.8491C27.4433 43.3341 26.25 43.7908 24.9958 44.2066C24.7125 44.1133 24.4408 44.0133 24.1625 43.9158V35.9166C24.1627 35.6961 24.0755 35.4846 23.92 35.3283C21.9996 33.1978 20.9048 30.4506 20.8333 27.5833C20.8543 24.9237 21.5115 22.3078 22.75 19.9541L22.9533 19.5133C23.1446 19.1056 23.1596 18.6373 22.995 18.2183C22.8245 17.7916 22.4861 17.4538 22.0592 17.2841C19.5838 16.4142 16.9835 15.9524 14.36 15.9166C12.8211 15.3894 11.6355 14.1456 11.1825 12.5833H12.5C13.4205 12.5833 14.1667 11.8371 14.1667 10.9166V9.08325L15.6742 8.70909C16.6783 8.45393 17.5522 7.83544 18.1267 6.97325L20.0742 4.05659C20.1396 3.95946 20.2117 3.86701 20.29 3.77992C20.5988 3.42309 21.0038 3.16272 21.4567 3.02992C23.7055 2.3255 26.0313 1.89571 28.3833 1.74992C29.4306 1.83624 30.3872 2.37791 31 3.23159C32.604 5.4684 33.4402 8.16468 33.3833 10.9166C33.3833 12.5116 32.815 13.5833 31.6925 14.0933C30.5069 14.5459 29.1915 14.5184 28.0258 14.0166C27.7082 13.8905 27.4998 13.5833 27.5 13.2416V7.58325C27.5 7.12302 27.1269 6.74992 26.6667 6.74992C26.2064 6.74992 25.8333 7.12302 25.8333 7.58325V13.2416C25.8371 14.2654 26.4609 15.1848 27.4108 15.5666C28.6605 16.076 30.0321 16.2075 31.3558 15.9449L31.6425 17.9449C31.7364 18.6023 32.2146 19.1396 32.8567 19.3091C34.1167 19.7494 35.2431 20.5051 36.1283 21.5041C37.4225 22.7908 40.3367 27.2824 42.5758 32.5041C39.2372 36.648 34.9753 39.9534 30.1308 42.1558L30.13 42.1591Z" fill="white"/>
</svg>
