<svg width="46" height="47" viewBox="0 0 46 47" fill="none" xmlns="http://www.w3.org/2000/svg">
<path d="M11.5 11.2236H4.76156C4.23417 11.2236 3.80615 11.6484 3.80615 12.1718C3.80615 12.6952 4.23417 13.12 4.76156 13.12H11.5C12.0274 13.12 12.4555 12.6952 12.4555 12.1718C12.4555 11.6484 12.0274 11.2236 11.5 11.2236Z" fill="#FF741C"/>
<path d="M8.78387 17.7773C8.78387 17.2539 8.35584 16.8291 7.82846 16.8291H2.12563C1.59825 16.8291 1.17023 17.2539 1.17023 17.7773C1.17023 18.3006 1.59825 18.7254 2.12563 18.7254H7.82846C8.35584 18.7254 8.78387 18.3006 8.78387 17.7773Z" fill="#FF741C"/>
<path d="M3.66085 22.6025C3.13347 22.6025 2.70544 23.0273 2.70544 23.5507C2.70544 24.0741 3.13347 24.4989 3.66085 24.4989H6.6035C7.13089 24.4989 7.55891 24.0741 7.55891 23.5507C7.55891 23.0273 7.13089 22.6025 6.6035 22.6025H3.66085Z" fill="#FF741C"/>
<path d="M12.3693 24.4616C12.5499 24.6645 12.8107 24.7802 13.084 24.7802H21.6826C21.7925 24.7802 21.9004 24.7584 22.0055 24.7204C22.0466 24.7053 22.081 24.6806 22.1192 24.6607C22.168 24.6351 22.2196 24.618 22.2645 24.5839L26.4014 21.4265C26.5858 21.2852 26.6813 21.0852 26.7281 20.8756C26.7405 20.8301 26.7644 20.7903 26.7702 20.742L27.716 12.8153C27.7179 12.7983 27.7179 12.7802 27.7189 12.7632C27.7284 12.638 27.7227 12.511 27.6807 12.3868C27.5507 12.0028 27.1886 11.7439 26.7807 11.742L18.2221 11.7022C17.9823 11.7003 17.8027 11.7705 17.6336 11.8994L13.4546 15.0994C13.446 15.1061 13.4422 15.1165 13.4336 15.1232C13.3677 15.1772 13.3161 15.2445 13.2664 15.3147C13.2464 15.3431 13.2187 15.3659 13.2015 15.3962C13.1604 15.4711 13.1384 15.5574 13.1183 15.6437C13.1117 15.674 13.0945 15.7025 13.0897 15.7338C13.0897 15.7357 13.0887 15.7366 13.0878 15.7385L12.1324 23.722C12.1027 23.9894 12.1878 24.2596 12.3693 24.4616ZM24.9148 20.1693L22.8988 21.7072L23.539 16.3567L25.552 14.8197L24.9148 20.1693ZM18.5422 13.5985L23.9851 13.6241L22.3132 14.9003H16.8416L18.5422 13.5985ZM14.8878 16.7967H21.5622L20.8342 22.8838H14.1597L14.8878 16.7967Z" fill="#FF741C"/>
<path d="M40.0487 15.1751C39.8939 14.8366 39.5538 14.6185 39.1783 14.6185H32.0319V9.81132C32.0319 7.9918 30.6179 6.51172 28.879 6.51172H8.16581C6.70595 6.51172 5.41615 7.58978 5.10086 9.07555C4.99195 9.58755 5.32156 10.0901 5.83748 10.1982C6.35627 10.3063 6.86072 9.97914 6.96964 9.46619C7.10053 8.85368 7.60307 8.40804 8.16581 8.40804H28.879C29.5641 8.40804 30.1211 9.03762 30.1211 9.81132V30.6519H16.1807C15.7365 28.491 13.8075 26.8593 11.5002 26.8593C9.19287 26.8593 7.2639 28.491 6.81964 30.6519H5.29959C4.61456 30.6519 4.05756 30.0185 4.05278 29.3321L4.19609 27.9003C4.24864 27.3798 3.86457 26.9152 3.34005 26.863C2.81553 26.8062 2.34738 27.1921 2.29483 27.7126L2.14674 29.2391C2.14674 31.0634 3.56075 32.5482 5.29959 32.5482H6.81964C7.2639 34.7091 9.19287 36.3409 11.5002 36.3409C13.8075 36.3409 15.7365 34.7091 16.1807 32.5482H31.0765H32.2717C32.7159 34.7091 34.6449 36.3409 36.9522 36.3409C39.2595 36.3409 41.1885 34.7091 41.6328 32.5482H42.828C43.3554 32.5482 43.7834 32.1234 43.7834 31.6001V23.5502C43.7834 23.4146 43.7547 23.2818 43.6984 23.1586L40.0487 15.1751ZM11.5002 34.4445C9.91994 34.4445 8.63396 33.1683 8.63396 31.6001C8.63396 30.0318 9.91994 28.7556 11.5002 28.7556C13.0804 28.7556 14.3664 30.0318 14.3664 31.6001C14.3664 33.1683 13.0804 34.4445 11.5002 34.4445ZM38.563 16.5148L41.2926 22.4863C38.2649 21.8814 35.8277 19.5252 35.1627 16.5148H38.563ZM36.9522 34.4445C35.372 34.4445 34.086 33.1683 34.086 31.6001C34.086 30.0318 35.372 28.7556 36.9522 28.7556C38.5325 28.7556 39.8184 30.0318 39.8184 31.6001C39.8184 33.1683 38.5325 34.4445 36.9522 34.4445ZM41.8726 26.2173H41.4493C41.0758 26.2173 40.7738 26.6421 40.7738 27.1655V27.5808C40.7738 28.1042 41.0767 28.529 41.4493 28.529H41.8726V30.6528H41.6328C41.1885 28.492 39.2595 26.8602 36.9522 26.8602C34.6449 26.8602 32.7159 28.492 32.2717 30.6528H32.0319V16.5148H33.2089C33.9551 20.7683 37.5369 24.0622 41.8716 24.4888L41.8726 26.2173Z" fill="#FF741C"/>
<path d="M11.4999 32.5389C12.0276 32.5389 12.4554 32.1144 12.4554 31.5907C12.4554 31.0671 12.0276 30.6426 11.4999 30.6426C10.9723 30.6426 10.5445 31.0671 10.5445 31.5907C10.5445 32.1144 10.9723 32.5389 11.4999 32.5389Z" fill="#FF741C"/>
<path d="M36.952 32.5389C37.4796 32.5389 37.9074 32.1144 37.9074 31.5907C37.9074 31.0671 37.4796 30.6426 36.952 30.6426C36.4243 30.6426 35.9966 31.0671 35.9966 31.5907C35.9966 32.1144 36.4243 32.5389 36.952 32.5389Z" fill="#FF741C"/>
</svg>
