<svg width="50" height="50" viewBox="0 0 50 50" fill="none" xmlns="http://www.w3.org/2000/svg">
<g clip-path="url(#clip0_1_1999)">
<path d="M26.2646 16.6659C25.4982 18.4256 24.4576 19.3588 24.4492 19.3663C24.4467 19.3686 24.444 19.3708 24.4414 19.3731C23.7144 20.0255 23.2973 20.9598 23.2973 21.9366C23.2973 23.0269 23.7955 24.0318 24.6642 24.694C25.5874 25.3979 26.8106 25.6332 27.9361 25.3241C28.3799 25.2022 28.8961 25.1378 29.4291 25.1378C29.971 25.1378 30.4946 25.2043 30.9436 25.3302C31.2753 25.4232 31.6146 25.469 31.9523 25.469C32.6785 25.469 33.3971 25.2572 34.0168 24.8479C34.8682 24.2855 35.4303 23.3978 35.5589 22.4121C35.559 22.4119 35.559 22.4117 35.559 22.4115C35.7179 21.187 35.2475 20.0088 34.2992 19.2496C33.9717 18.9187 33.2108 18.0573 32.6047 16.6655C32.069 15.3809 30.8253 14.5513 29.4345 14.5513C28.0439 14.5512 26.8004 15.381 26.2646 16.6659ZM27.615 17.2333C27.9218 16.4938 28.6359 16.0161 29.4345 16.0161C30.2333 16.0161 30.9476 16.4937 31.2542 17.233L31.2591 17.2444C31.9849 18.9134 32.9248 19.9493 33.2953 20.3173C33.3162 20.338 33.3383 20.3575 33.3615 20.3756C33.9214 20.8114 34.1999 21.5021 34.1065 22.2229C34.0316 22.7948 33.7132 23.2931 33.2096 23.6257C32.6565 23.9909 31.9746 24.0979 31.3392 23.9198C30.7634 23.7584 30.1028 23.673 29.4292 23.673C28.767 23.673 28.1166 23.7556 27.5481 23.9116C26.8604 24.1006 26.1143 23.9575 25.5523 23.5291C25.0427 23.1406 24.7621 22.5751 24.7621 21.9365C24.7621 21.3763 25.0009 20.8402 25.4174 20.4655C25.5211 20.3738 26.7248 19.281 27.6102 17.2447L27.615 17.2333Z" fill="white"/>
<path d="M22.1012 13.0384C21.5306 12.8567 20.9466 12.8964 20.4569 13.1501C19.2601 13.7697 18.9243 15.4223 19.6927 16.9126C20.1128 17.7271 20.7921 18.3338 21.5563 18.5774C21.7923 18.6526 22.0304 18.6899 22.2633 18.6899C22.5936 18.6899 22.9135 18.6147 23.2008 18.466C24.3976 17.8465 24.7334 16.194 23.9651 14.7038V14.7037C23.545 13.8888 22.8656 13.2818 22.1012 13.0384ZM22.5274 17.165C22.3453 17.2592 22.1406 17.226 22.0011 17.1815C21.6104 17.057 21.2341 16.7054 20.9945 16.241C20.582 15.441 20.7351 14.6555 21.1305 14.4508C21.2162 14.4064 21.307 14.3902 21.3935 14.3902C21.4908 14.3902 21.5828 14.4105 21.6566 14.434C22.0473 14.5584 22.4235 14.9101 22.6632 15.3748C23.0756 16.1749 22.9227 16.9604 22.5274 17.165Z" fill="white"/>
<path d="M35.6362 18.4659C35.9236 18.6147 36.2434 18.6898 36.5738 18.6898C36.8067 18.6898 37.0448 18.6524 37.2807 18.5773C38.0449 18.3338 38.7242 17.727 39.1445 16.9124C39.9128 15.4222 39.5771 13.7696 38.3804 13.1502C37.8904 12.8964 37.3066 12.8566 36.7358 13.0384C35.9715 13.2818 35.2921 13.8888 34.8719 14.7035C34.1036 16.1938 34.4394 17.8464 35.6362 18.4659ZM36.1738 15.375C36.4135 14.9104 36.7898 14.5586 37.1805 14.4342C37.3199 14.3899 37.5243 14.3566 37.7068 14.451C38.1021 14.6556 38.2551 15.4411 37.8428 16.241C37.6031 16.7055 37.2268 17.0571 36.836 17.1816C36.6965 17.2261 36.4919 17.2594 36.3097 17.165C35.9145 16.9605 35.7614 16.175 36.1738 15.375Z" fill="white"/>
<path d="M26.5146 13.7753C27.1883 13.7753 27.7992 13.3824 28.1906 12.6973C28.531 12.1013 28.6738 11.3172 28.5825 10.546C28.4038 9.03037 27.3654 7.84326 26.2184 7.84326C25.5446 7.84326 24.9339 8.23594 24.5427 8.92061C24.2025 9.51621 24.0597 10.3004 24.1508 11.0717C24.3294 12.5877 25.3677 13.7753 26.5146 13.7753ZM25.8147 9.64717C25.8601 9.56768 26.0235 9.30811 26.2184 9.30811C26.5143 9.30811 27.0279 9.87031 27.1278 10.7177V10.7182C27.1824 11.1778 27.1042 11.6461 26.9188 11.9707C26.8732 12.0504 26.7095 12.3104 26.5146 12.3104C26.2189 12.3104 25.7055 11.7479 25.6055 10.9C25.5512 10.4399 25.6292 9.97158 25.8147 9.64717Z" fill="white"/>
<path d="M32.3724 13.7754C33.5192 13.7754 34.5575 12.5878 34.7361 11.072C34.8274 10.3006 34.6845 9.5165 34.3442 8.92061C33.953 8.23594 33.3423 7.84326 32.6685 7.84326C31.5214 7.84326 30.483 9.03047 30.3043 10.546C30.2129 11.3171 30.3558 12.1013 30.6964 12.6974C31.0877 13.3825 31.6986 13.7754 32.3724 13.7754ZM31.7591 10.7183V10.7178C31.8589 9.87041 32.3726 9.3082 32.6686 9.3082C32.8635 9.3082 33.027 9.56777 33.0724 9.64717C33.2576 9.97168 33.3359 10.4401 33.2816 10.9003C33.1817 11.748 32.6683 12.3105 32.3725 12.3105C32.1775 12.3105 32.0139 12.0505 31.9684 11.9709C31.7828 11.6461 31.7045 11.1778 31.7591 10.7183Z" fill="white"/>
<path d="M7.07306 43.9361C7.07306 44.3407 7.40099 44.6686 7.80548 44.6686C8.20997 44.6686 8.5379 44.3407 8.5379 43.9361C8.5379 43.1852 9.14718 42.5742 9.89601 42.5742C10.6448 42.5742 11.2541 43.1852 11.2541 43.9361C11.2541 44.687 10.6448 45.2979 9.89601 45.2979C9.49152 45.2979 9.16359 45.6258 9.16359 46.0304C9.16359 46.435 9.49152 46.7628 9.89601 46.7628C11.4526 46.7628 12.719 45.4948 12.719 43.9361C12.719 42.3774 11.4526 41.1094 9.89601 41.1094C8.33937 41.1094 7.07306 42.3774 7.07306 43.9361Z" fill="white"/>
<path d="M46.1581 17.6768C46.1581 17.2723 45.8303 16.9443 45.4257 16.9443H44.7225V5.77012C44.7225 4.04678 43.4211 2.62207 41.7509 2.42988C41.2113 1.64883 39.8813 0 38.2687 0C36.5175 0 35.0929 1.42666 35.0929 3.18018C35.0929 4.93369 36.5175 6.36035 38.2687 6.36035C39.8922 6.36035 41.2294 4.68896 41.7618 3.91455C42.6155 4.09775 43.2576 4.86016 43.2576 5.77002V16.9443H42.496C42.0914 16.9443 41.7636 17.2723 41.7636 17.6768C41.7636 24.4978 36.2256 30.047 29.4185 30.047C24.8213 30.047 20.6315 27.506 18.4843 23.4156C18.2962 23.0574 17.8534 22.9194 17.4954 23.1075C17.1373 23.2955 16.9993 23.7383 17.1873 24.0964C19.5885 28.6703 24.2752 31.5117 29.4186 31.5117C36.788 31.5117 42.8278 25.6983 43.2095 18.4091H44.6762C44.2932 26.5096 37.596 32.9822 29.4187 32.9822C21.2414 32.9822 14.5443 26.5096 14.1612 18.4091H15.628C15.674 19.285 15.8024 20.1534 16.0115 20.9998C16.1086 21.3925 16.5056 21.6322 16.8982 21.5352C17.2909 21.4381 17.5307 21.0411 17.4336 20.6484C17.1947 19.6815 17.0736 18.6816 17.0736 17.6767C17.0736 17.2722 16.7457 16.9442 16.3412 16.9442H15.5158V5.77012C15.5158 4.86025 16.1579 4.09785 17.0116 3.91465C17.544 4.68906 18.8813 6.36045 20.5048 6.36045C22.2559 6.36045 23.6805 4.93379 23.6805 3.18027C23.6805 1.42676 22.2558 0 20.5047 0C18.8921 0 17.562 1.64893 17.0224 2.42998C15.3522 2.62217 14.0508 4.04688 14.0508 5.77022V16.9443H13.4113C13.0068 16.9443 12.6789 17.2723 12.6789 17.6768C12.6789 26.6781 19.7942 34.0459 28.686 34.4313V44.3775C28.686 46.6701 26.8251 48.5352 24.5378 48.5352C22.2505 48.5352 20.3896 46.67 20.3896 44.3775V38.6049C20.3896 35.5047 17.8716 32.9824 14.7765 32.9824C11.9157 32.9824 9.54796 35.1372 9.20587 37.9115C6.19131 38.2556 3.84171 40.8263 3.84171 43.9362C3.84171 47.2798 6.55762 50 9.89581 50C13.234 50 15.9499 47.2799 15.9499 43.9362C15.9499 40.8601 13.6512 38.3116 10.6839 37.9235C11.0092 35.954 12.7205 34.4472 14.7764 34.4472C17.0637 34.4472 18.9246 36.3123 18.9246 38.6048V44.3774C18.9246 47.4776 21.4426 49.9999 24.5377 49.9999C27.6328 49.9999 30.1508 47.4776 30.1508 44.3774V34.4313C39.0427 34.0459 46.1581 26.6782 46.1581 17.6768ZM38.2687 4.89561C37.3253 4.89561 36.5577 4.12607 36.5577 3.18027C36.5577 2.23447 37.3253 1.46484 38.2687 1.46484C39.0799 1.46484 40.0021 2.50781 40.4868 3.18154C39.9679 3.90371 39.0414 4.89561 38.2687 4.89561ZM20.5047 1.46484C21.4481 1.46484 22.2155 2.23437 22.2155 3.18018C22.2155 4.12598 21.4481 4.89551 20.5047 4.89551C19.694 4.89551 18.7725 3.85391 18.2874 3.18018C18.7729 2.50605 19.6941 1.46484 20.5047 1.46484ZM14.4853 43.9362C14.4853 46.4721 12.4265 48.5352 9.896 48.5352C7.36553 48.5352 5.30674 46.4721 5.30674 43.9362C5.30674 41.4003 7.36553 39.3372 9.896 39.3372C12.4265 39.3372 14.4853 41.4003 14.4853 43.9362Z" fill="white"/>
</g>
<defs>
<clipPath id="clip0_1_1999">
<rect width="50" height="50" fill="white"/>
</clipPath>
</defs>
</svg>
