<svg width="50" height="49" viewBox="0 0 50 49" fill="none" xmlns="http://www.w3.org/2000/svg">
<g filter="url(#filter0_d_1_2417)">
<path d="M25.1669 5.58599C35.2327 5.58599 43.3738 13.7271 43.3738 23.7929C43.3738 33.8587 35.2327 41.9998 25.1669 41.9998C15.101 41.9998 6.95996 33.8587 6.95996 23.7929C6.95996 13.7271 15.101 5.58599 25.1669 5.58599ZM21.8376 33.3905C29.9006 33.3905 34.3223 26.706 34.3223 20.9058V20.3336C35.1806 19.7093 35.9349 18.929 36.5072 18.0447C35.7269 18.3828 34.8685 18.6169 33.9842 18.747C34.8945 18.2008 35.5968 17.3424 35.9089 16.3281C35.0506 16.8222 34.1142 17.1864 33.1259 17.3945C32.3196 16.5361 31.1751 16.0159 29.9267 16.0159C27.5077 16.0159 25.531 17.9927 25.531 20.4116C25.531 20.7497 25.557 21.0879 25.661 21.4C22.0197 21.2179 18.7684 19.4753 16.6096 16.8222C16.2455 17.4725 16.0114 18.2268 16.0114 19.0331C16.0114 20.5417 16.7917 21.8942 17.9621 22.6745C17.2339 22.6745 16.5576 22.4664 15.9854 22.1283V22.1803C15.9854 24.3131 17.494 26.0818 19.4967 26.4979C19.1326 26.602 18.7424 26.654 18.3523 26.654C18.0662 26.654 17.8061 26.628 17.52 26.5759C18.0662 28.3186 19.7048 29.5931 21.6035 29.6191C20.0949 30.7895 18.1962 31.4918 16.1414 31.4918C15.7773 31.4918 15.4392 31.4918 15.101 31.4398C17.0258 32.6883 19.3406 33.4165 21.8116 33.4165" fill="#00ACEE"/>
</g>
<defs>
<filter id="filter0_d_1_2417" x="0.890996" y="0.275646" width="48.552" height="48.5517" filterUnits="userSpaceOnUse" color-interpolation-filters="sRGB">
<feFlood flood-opacity="0" result="BackgroundImageFix"/>
<feColorMatrix in="SourceAlpha" type="matrix" values="0 0 0 0 0 0 0 0 0 0 0 0 0 0 0 0 0 0 127 0" result="hardAlpha"/>
<feOffset dy="0.758621"/>
<feGaussianBlur stdDeviation="3.03448"/>
<feComposite in2="hardAlpha" operator="out"/>
<feColorMatrix type="matrix" values="0 0 0 0 0 0 0 0 0 0 0 0 0 0 0 0 0 0 0.1 0"/>
<feBlend mode="normal" in2="BackgroundImageFix" result="effect1_dropShadow_1_2417"/>
<feBlend mode="normal" in="SourceGraphic" in2="effect1_dropShadow_1_2417" result="shape"/>
</filter>
</defs>
</svg>
